<svg xmlns="http://www.w3.org/2000/svg" version="1.1" xmlns:xlink="http://www.w3.org/1999/xlink" width="512" height="512" x="0" y="0" viewBox="0 0 512 512" style="enable-background:new 0 0 512 512" xml:space="preserve" class=""><g><path d="M199.828 340.106h-24.533c-.068 0-.133.009-.2.01a9.2 9.2 0 0 0-4.992 1.343L51.954 413.552l15.88-61.902c.007-.025.009-.05.015-.074a9.262 9.262 0 0 0 .536-1.873c.864-5.033-2.514-9.814-7.547-10.678C25.586 332.971 0 303.14 0 268.094V155.101c0-39.708 32.929-72.013 73.404-72.013H319.17c40.474 0 73.403 32.305 73.403 72.013v9.331h-122.56c-39.961 0-72.472 32.034-72.472 71.408v86.438c0 6.154.795 12.127 2.287 17.828zM512 322.279c0 25.748-18.813 47.667-44.734 52.12a9.245 9.245 0 0 0-7.07 12.413l10.801 42.101-85.816-52.364a9.204 9.204 0 0 0-4.892-1.342c-.071-.002-.141-.011-.213-.011H270.013c-29.764 0-53.979-23.738-53.979-52.916v-86.438c0-29.178 24.215-52.916 53.979-52.916h188.008c29.764 0 53.979 23.738 53.979 52.916zm-220.514-3.539c-6.95 0-12.585 5.539-12.585 12.373 0 6.833 5.634 12.373 12.585 12.373s12.584-5.54 12.584-12.373-5.634-12.373-12.584-12.373zm72.254 0c-6.95 0-12.585 5.539-12.585 12.373 0 6.833 5.634 12.373 12.585 12.373 6.95 0 12.585-5.54 12.585-12.373-.001-6.833-5.635-12.373-12.585-12.373zm72.253 0c-6.95 0-12.584 5.539-12.584 12.373 0 6.833 5.634 12.373 12.584 12.373s12.585-5.54 12.585-12.373-5.635-12.373-12.585-12.373z" fill="#ab750e" opacity="1" data-original="#000000" class=""></path></g></svg>