<svg xmlns="http://www.w3.org/2000/svg" version="1.1" xmlns:xlink="http://www.w3.org/1999/xlink" width="512" height="512" x="0" y="0" viewBox="0 0 510 510" style="enable-background:new 0 0 512 512" xml:space="preserve" class=""><g><path d="M510 342.713c0-23.197-6.61-45.786-19.115-65.325-14.126-22.072-34.536-38.523-58.107-47.665 18.064-16.029 29.47-39.405 29.47-65.398 0-48.211-39.222-87.433-87.433-87.433-44.734 0-81.723 33.77-86.826 77.155a77.205 77.205 0 0 0-32.804-7.289 77.212 77.212 0 0 0-33.156 7.448c-5.032-43.461-42.056-77.314-86.844-77.314-48.211 0-87.433 39.222-87.433 87.433 0 25.993 11.406 49.369 29.47 65.398-23.571 9.141-43.981 25.592-58.107 47.665A120.961 120.961 0 0 0 0 342.713v59.046h136.16v31.349h238.051v-31.349H510zm-135.185-235.82c31.669 0 57.433 25.764 57.433 57.433 0 29.982-23.096 54.657-52.429 57.202h-10.007c-17.146-1.488-32.15-10.536-41.667-23.79-3.039-4.418-5.252-8.503-8.001-15.833a57.19 57.19 0 0 1-2.762-17.579c0-31.67 25.764-57.433 57.433-57.433zm-81.607 88.809c3.983 5.617 6.026 10.383 7.742 15.355a47.528 47.528 0 0 1 1.928 13.395c0 26.299-21.396 47.694-47.694 47.694s-47.694-21.396-47.694-47.694c0-5.071.803-9.956 2.276-14.544 1.978-5.823 3.51-8.759 6.59-13.1 8.656-12.124 22.83-20.05 38.828-20.05 15.509.001 29.308 7.445 38.024 18.944zm-158.023-88.809c31.668 0 57.433 25.764 57.433 57.433a57.166 57.166 0 0 1-3.177 18.803c-2.54 4.847-3.866 8.701-6.753 13.439-9.46 13.894-24.85 23.429-42.498 24.96h-10.007c-29.333-2.545-52.429-27.22-52.429-57.202-.002-31.67 25.762-57.433 57.431-57.433zm1.298 264.866H30v-29.046a91.018 91.018 0 0 1 14.383-49.153c16.844-26.319 45.556-42.032 76.803-42.032 7.701.023 16.152.312 23.814 0v-.323a86.802 86.802 0 0 0 34.045-11.268c3.27 16.104 11.545 30.402 23.113 41.225-19.893 8.213-37.101 22.388-49.135 41.193a106.674 106.674 0 0 0-16.54 49.404zm207.728 31.348H166.16v-23.124a76.762 76.762 0 0 1 12.131-41.457c14.207-22.198 38.422-35.451 64.777-35.451h24.234c26.355 0 50.571 13.253 64.778 35.451a76.767 76.767 0 0 1 12.131 41.457zM480 371.759H373.887a106.684 106.684 0 0 0-16.539-49.404c-12.035-18.805-29.242-32.979-49.135-41.193 11.521-10.779 19.778-25.005 23.075-41.028A86.819 86.819 0 0 0 365 251.205v.323c7.652.312 16.125.023 23.814 0 31.247 0 59.959 15.713 76.803 42.032A91.023 91.023 0 0 1 480 342.713z" fill="#ab750e" opacity="1" data-original="#000000" class=""></path></g></svg>