<?xml version="1.0" encoding="UTF-8"?>
<svg xmlns="http://www.w3.org/2000/svg" width="149" height="36" viewBox="0 0 149 36" fill="none">
  <path d="M44.7637 25.348C46.1547 24.5532 47.0399 23.0537 47.0399 21.2292C47.0399 17.1827 44.1315 15.8459 38.983 15.8459H30.041V29.557H34.4307V26.6848H39.0011C39.6876 26.6848 40.3378 26.6486 40.9341 26.5764C41.7469 27.3712 42.4514 28.6538 42.7405 29.539H47.2928C46.8051 28.0757 45.8476 26.3416 44.7637 25.348ZM39.1998 23.5235H34.4307V19.0073H39.1998C41.5121 19.0073 42.8308 19.4227 42.8308 21.2292C42.8127 23.0537 41.5121 23.5235 39.1998 23.5235Z" fill="#DA0E29"></path>
  <path d="M26.4972 15.8459H22.1074V29.557H26.4972V15.8459Z" fill="#DA0E29"></path>
  <path d="M61.8721 15.8459H57.4824V29.557H61.8721V15.8459Z" fill="#DA0E29"></path>
  <path d="M111.063 15.8459H106.674V29.557H111.063V15.8459Z" fill="#DA0E29"></path>
  <path d="M95.2332 15.8459H86.5625V29.557H95.2332C100.328 29.557 104.085 27.2629 104.085 22.6924C104.085 18.1221 100.328 15.8459 95.2332 15.8459ZM94.7102 26.2873H90.9519V19.1156H94.7102C97.9796 19.1156 99.7141 20.2718 99.7141 22.6924C99.7141 25.1132 97.9796 26.2873 94.7102 26.2873Z" fill="#DA0E29"></path>
  <path d="M78.8187 22.0963C76.199 19.1699 73.0378 17.0563 69.1179 15.8459H65.3965V29.557H69.6056V20.2899C73.616 21.5905 77.319 25.6732 79.144 29.557H83.0095V15.8459H78.8003V22.0963H78.8187Z" fill="#DA0E29"></path>
  <path d="M7.2987 15.8459C4.40834 19.1156 0.34375 24.6254 0.34375 29.557H4.71542C4.71542 28.8164 4.80579 28.0577 4.98636 27.317H14.94C15.1206 28.0757 15.211 28.8164 15.211 29.557H19.5826C19.5826 24.6254 15.5181 19.1156 12.6277 15.8459H7.2987ZM5.97994 24.4267C7.04578 22.0963 8.59935 19.9286 9.95416 18.357C11.3091 19.9286 12.8625 22.0963 13.9284 24.4267H5.97994Z" fill="#DA0E29"></path>
  <path d="M125.874 15.8459H120.545C117.654 19.1156 113.59 24.6254 113.59 29.557H117.962C117.962 28.8164 118.051 28.0577 118.232 27.317H128.186C128.367 28.0757 128.457 28.8164 128.457 29.557H132.828C132.828 24.6073 128.764 19.1156 125.874 15.8459ZM119.226 24.4267C120.291 22.0963 121.846 19.9286 123.2 18.357C124.555 19.9286 126.108 22.0963 127.174 24.4267H119.226Z" fill="#DA0E29"></path>
  <path d="M148.22 24.5162C148.581 21.8426 147.931 19.5303 147.388 18.0128C147.009 16.9471 146.703 16.098 146.431 15.3393C145.203 11.889 144.968 11.2566 144.119 7.80637L143.83 6.66827L142.71 6.30695C139.314 5.20506 138.718 4.93403 135.358 3.4347C134.617 3.10951 133.786 2.73017 132.756 2.27857C131.546 1.75471 129.703 1.03207 127.482 0.959807C124.067 0.83339 120.798 2.22433 117.745 5.07856L117.799 5.06054C117.022 5.74695 116.227 6.54185 115.414 7.46308C115.414 7.46308 115.433 7.51732 115.613 7.37279C116.679 6.50572 120.166 3.25404 129.65 7.51732C134.31 9.61278 138.79 11.4734 138.79 11.4734C138.79 11.4734 140.253 16.0799 141.933 20.9213C145.347 30.7304 141.807 33.9279 140.85 34.9033C140.704 35.066 140.759 35.084 140.759 35.084C142.132 34.0904 143.234 33.0969 144.155 32.1214C146.467 29.7911 147.84 27.2439 148.22 24.5162Z" fill="url(#paint0_linear_741_10472)"></path>
  <path d="M143.845 6.63262L142.725 6.27131C139.329 5.16942 138.733 4.89839 135.373 3.39905C134.632 3.07387 133.801 2.69453 132.772 2.24293C131.561 1.71906 129.719 0.996426 127.496 0.924163C124.083 0.797746 120.813 2.18868 117.76 5.04291L117.814 5.02489C117.038 5.71131 116.243 6.50621 115.43 7.42743C115.43 7.42743 115.447 7.48167 115.628 7.33715C116.694 6.47007 120.18 3.21839 129.664 7.48167C134.325 9.57714 138.805 11.4378 138.805 11.4378L143.845 6.63262Z" fill="#FED9A0"></path>
  <defs>
    <linearGradient id="paint0_linear_741_10472" x1="161.066" y1="49.7929" x2="125.118" y2="0.892171" gradientUnits="userSpaceOnUse">
      <stop offset="0.1805" stop-color="#FED9A0"></stop>
      <stop offset="0.3124" stop-color="#ECC890"></stop>
      <stop offset="0.5738" stop-color="#BF9A66"></stop>
      <stop offset="0.7464" stop-color="#9E7947"></stop>
    </linearGradient>
  </defs>
</svg>
