<?xml version="1.0" encoding="UTF-8"?>
<svg xmlns="http://www.w3.org/2000/svg" width="145" height="38" viewBox="0 0 145 38" fill="none">
  <path fill-rule="evenodd" clip-rule="evenodd" d="M91.4057 0.0390163C91.231 0.0645284 90.8283 0.115167 90.5107 0.151541C87.0984 0.542578 83.6761 2.01944 80.7816 4.35007C80.1967 4.82104 78.6791 6.27105 78.2378 6.78056C78.0653 6.9797 77.9094 7.15517 77.8914 7.17049C77.8732 7.18581 77.6907 7.41168 77.4857 7.67243C75.6764 9.97431 74.4956 12.5851 73.9977 15.3851C73.798 16.5078 73.7385 17.289 73.7385 18.7846C73.7384 20.8499 73.8659 21.8803 74.3517 23.7422C74.7547 25.2868 75.4909 26.9516 76.4149 28.4076C77.6721 30.3887 79.461 32.2781 81.4456 33.7212C83.2783 35.0539 84.8872 35.8718 87.1618 36.6271C87.5315 36.7498 89.1848 37.1418 89.7601 37.2431C91.5535 37.559 94.3507 37.598 96.2847 37.3343C99.8976 36.8415 102.987 35.5419 105.867 33.3029C106.607 32.7273 107.743 31.6736 108.306 31.0394C110.29 28.8044 111.594 26.0917 112.134 23.0738C112.362 21.7947 112.421 20.8557 112.422 18.4922L112.423 16.2501H103.04H93.6564L93.6714 18.7707L93.6864 21.2913L100.124 21.3191L106.562 21.347L106.543 21.8205C106.474 23.4907 105.902 25.286 104.985 26.7119C103.666 28.7626 101.457 30.4901 98.9118 31.4623C97.1843 32.122 95.3759 32.4275 93.2534 32.4182C91.8528 32.412 90.9448 32.3033 89.4425 31.962C88.5943 31.7692 86.9378 31.0533 86.0071 30.4771C84.2754 29.4052 82.6293 27.761 81.5231 25.9982C79.9516 23.4937 79.2777 20.5126 79.5715 17.3642C79.8792 14.0674 81.2823 11.1972 83.7371 8.84304C85.1253 7.51173 86.5223 6.62443 88.2651 5.96702C89.0287 5.67898 90.214 5.37795 90.9726 5.27942C91.2585 5.24232 91.6662 5.1889 91.8787 5.16071C92.4004 5.09153 94.2579 5.09571 94.7723 5.16723C96.0994 5.35172 96.6517 5.46185 97.4683 5.70494C98.1325 5.90263 99.1678 6.33455 99.8033 6.67907C100.503 7.05813 101.159 7.48956 102.405 8.39C103.396 9.10601 103.697 9.33506 104.766 10.191C105.254 10.5811 105.342 10.6215 105.419 10.4888C105.444 10.4451 105.634 10.2374 105.841 10.0273C106.302 9.55804 107.449 8.36594 107.588 8.21119C107.645 8.1488 107.943 7.83558 108.252 7.51507C108.942 6.79967 109.016 6.71762 109.016 6.67027C109.016 6.6344 108.24 5.89917 107.57 5.3013C106.808 4.62022 105.403 3.56531 104.484 2.98338C101.881 1.33629 99.2677 0.445152 95.996 0.0891524C95.3284 0.0164596 91.8223 -0.0218117 91.4057 0.0390163ZM56.0242 0.607414C55.9691 0.660611 55.9537 3.24201 55.9537 12.4156C55.9537 23.8474 55.9506 24.1786 55.8377 25.0274C55.7058 26.0183 55.5655 26.6211 55.283 27.4116C54.4717 29.682 52.7819 31.4114 50.6578 32.1451C49.1837 32.6543 46.9892 32.6463 45.3788 32.1258C43.1085 31.392 41.3484 29.6951 40.5831 27.5022C40.2129 26.4415 40.1297 25.9395 40.0928 24.5434C40.0662 23.5354 40.078 23.3037 40.189 22.6495C40.4841 20.9098 41.2014 19.4845 42.34 18.3753C43.1077 17.6274 43.9209 17.1151 44.8966 16.765C45.6214 16.505 45.7054 16.4841 46.7394 16.3082C47.1938 16.231 48.6692 16.2341 49.1081 16.3132C50.7019 16.6008 52.7812 17.4019 54.0831 18.23C54.3941 18.4278 54.6759 18.5897 54.7093 18.5897C54.7579 18.5897 54.7756 15.6671 54.742 13.2079C54.7409 13.127 53.3516 12.4687 52.7203 12.25C51.3682 11.7816 50.4414 11.5825 48.9095 11.4312C45.2253 11.0673 42.1102 11.9451 39.4402 14.0995C37.3214 15.809 35.8699 17.9819 35.225 20.4094C34.9151 21.5758 34.8206 22.3779 34.8177 23.8676C34.8143 25.6558 35.0931 27.4607 35.5815 28.8112C36.7453 32.0297 39.0582 34.6752 41.9116 36.0518C43.3031 36.723 44.3886 37.0501 46.0225 37.2904C46.9702 37.4297 49.3648 37.4282 50.2952 37.2877C51.7446 37.0688 52.8073 36.7581 53.9617 36.2157C55.3208 35.5771 56.0544 35.0858 57.1037 34.1109C59.0881 32.2676 60.3529 30.0054 60.9389 27.2515C61.3238 25.4429 61.3222 25.5053 61.3229 12.4484L61.3234 0.597498H58.7876C57.3929 0.597498 56.2165 0.584411 56.1733 0.568424C56.1301 0.552437 56.063 0.569982 56.0242 0.607414ZM0.8125 18.7573V36.9171L3.59843 36.9027L6.38436 36.8882L6.39891 18.7429L6.4134 0.597498H3.61298H0.8125V18.7573ZM66.9242 3.69421C65.8966 3.87358 65.1852 4.34822 64.7443 5.14879C64.496 5.59965 64.3836 6.07068 64.3836 6.66058C64.3836 8.45523 65.6689 9.67992 67.5484 9.6763C68.1133 9.67519 68.8256 9.50334 69.2261 9.27162C69.8404 8.91606 70.4261 8.09421 70.5648 7.3933C70.6513 6.95586 70.6361 6.25038 70.5318 5.86564C70.3956 5.36253 70.1735 5.01165 69.6968 4.54631C69.0496 3.91452 68.5948 3.72463 67.6459 3.69009C67.3283 3.6785 67.0036 3.68034 66.9242 3.69421ZM141.553 10.7895C141.484 10.8978 141.588 10.9583 141.844 10.9583H142.101V11.6546V12.3509H142.245H142.39V11.6577V10.9644L142.664 10.9474C142.861 10.9352 142.938 10.9071 142.938 10.8469C142.938 10.7783 142.818 10.7606 142.264 10.7477C141.846 10.738 141.576 10.7538 141.553 10.7895ZM143.082 11.5471C143.082 12.3569 143.083 12.3586 143.212 12.3409C143.338 12.3237 143.342 12.304 143.33 11.8028C143.32 11.3896 143.333 11.2945 143.391 11.3408C143.431 11.3729 143.499 11.5318 143.542 11.6939C143.675 12.1949 143.762 12.3509 143.909 12.3509C144.046 12.3509 144.141 12.1624 144.294 11.585C144.388 11.2335 144.478 11.2914 144.468 11.6964C144.452 12.3474 144.454 12.3605 144.598 12.3409C144.726 12.3234 144.728 12.3095 144.728 11.5432V10.7633H144.531H144.334L144.123 11.3733C144.007 11.7088 143.898 11.9595 143.881 11.9303C143.863 11.9013 143.764 11.6205 143.66 11.3065L143.47 10.7355H143.276H143.082V11.5471ZM19.2025 11.4102C18.1681 11.5553 17.9604 11.589 17.6436 11.6637C15.2871 12.2192 13.2892 13.4567 11.813 15.2753C10.4965 16.8973 9.74069 18.7898 9.53283 20.9849C9.48618 21.4778 9.47209 23.9026 9.48462 29.2847L9.50229 36.8882L12.1133 36.9027L14.7242 36.9172L14.7431 29.1042C14.7618 21.3723 14.7633 21.2864 14.8839 20.8178C15.275 19.2984 16.0204 18.1957 17.2707 17.2872C17.7377 16.9478 18.5461 16.5648 19.087 16.4266C19.664 16.2793 19.904 16.2501 20.5417 16.2501C22.1468 16.2502 23.3077 16.701 24.477 17.7784C25.3774 18.6079 26.0042 19.6913 26.2444 20.8331C26.4489 21.8052 26.4536 22.1721 26.4489 36.7077L26.4488 36.9172L29.0904 36.9027L31.732 36.8882L31.7496 29.786C31.7705 21.3173 31.7529 20.8508 31.349 19.2163C30.6407 16.3492 28.5903 13.8668 25.7833 12.4781C25.1523 12.1659 23.9013 11.7412 23.2154 11.6063C22.0308 11.3733 20.1288 11.2804 19.2025 11.4102ZM127.579 11.4099C126.182 11.5739 125.48 11.7169 124.465 12.0447C124.117 12.1569 123.589 12.3585 123.292 12.4927C122.808 12.711 121.782 13.2502 121.632 13.3654C121.601 13.3898 121.325 13.5814 121.021 13.7911C120.439 14.1917 120.299 14.302 119.729 14.8053C118.196 16.1588 117.049 17.7791 116.358 19.5645C115.763 21.1023 115.52 22.4844 115.516 24.355C115.51 26.7102 115.933 28.5614 116.899 30.4063C117.516 31.584 118.187 32.4661 119.283 33.5378C121.389 35.5982 123.836 36.8132 126.829 37.2854C127.721 37.4261 130.08 37.4296 130.986 37.2915C132.32 37.0882 133.112 36.8794 134.239 36.4343C136.673 35.4727 138.984 33.6044 140.454 31.41C141.261 30.2046 141.993 28.3463 142.224 26.9173C142.692 24.0226 142.387 21.36 141.322 19.0247C140.459 17.1335 138.913 15.3044 137.012 13.9255C135.801 13.0477 134.643 12.4559 133.284 12.0208C132.23 11.6836 131.663 11.5697 130.212 11.4038C129.642 11.3386 128.158 11.3421 127.579 11.4099ZM64.8696 11.9006C64.8564 11.9134 64.8455 17.5471 64.8455 24.42V36.916H67.5017H70.1578L70.1432 24.4084L70.1287 11.9008L67.5112 11.8891C66.0716 11.8827 64.8828 11.8879 64.8696 11.9006ZM130.293 16.3312C131.757 16.5815 132.699 16.9586 133.722 17.7037C135.877 19.2734 136.997 21.7639 136.889 24.7417C136.842 26.0253 136.585 27.1883 136.145 28.1065C136.023 28.3623 135.923 28.5814 135.923 28.5934C135.923 28.6053 135.802 28.7971 135.654 29.0195C134.374 30.9487 132.667 32.048 130.358 32.4305C129.694 32.5404 128.211 32.5418 127.522 32.4331C125.861 32.1711 124.583 31.5429 123.387 30.4003C122.024 29.0975 121.298 27.6009 121.051 25.5822C120.79 23.4417 121.224 21.2215 122.195 19.7334C123.448 17.813 125.205 16.7037 127.608 16.316C128.122 16.2331 129.774 16.2424 130.293 16.3312Z" fill="#2C3A9B"></path>
</svg>
