<?xml version="1.0" encoding="UTF-8"?>
<svg xmlns="http://www.w3.org/2000/svg" width="263" height="181" viewBox="0 0 263 181" fill="none">
  <g opacity="0.4">
    <path d="M154.705 55.0012C154.835 54.1247 155.055 53.2708 155.362 52.4476C155.513 48.9341 155.693 45.4199 155.93 41.9181L156.067 39.8984C155.997 39.9145 155.924 39.9284 155.854 39.9444L155.686 39.2337C155.828 39.2001 155.976 39.1716 156.119 39.1395L156.447 34.2936L156.208 34.3302L156.152 33.9693L156.472 33.9204L157.525 18.4004C157.526 18.3683 157.532 18.334 157.535 18.3011C157.451 18.3201 157.364 18.3362 157.281 18.3551L157.117 17.643C157.293 17.6021 157.476 17.567 157.654 17.5283C158.23 15.0111 160.495 13.1719 163.124 13.1719H166.551V12.4414H163.124C159.952 12.4414 157.249 14.8103 156.837 17.9439C156.816 18.0827 156.801 18.2229 156.794 18.3559L155.2 41.867C154.905 46.2234 154.686 50.5981 154.523 54.9669H154.556C154.608 54.9676 154.659 54.9808 154.705 55.0012Z" fill="#1C3867"></path>
    <path d="M155.15 58.1857C155.081 58.1769 155.007 58.1718 154.938 58.1638L154.836 58.1514C154.825 58.5319 154.814 58.9154 154.805 59.2872C154.894 59.334 155 59.38 155.118 59.4253C155.13 59.0118 155.138 58.5991 155.15 58.1857Z" fill="#1C3867"></path>
    <path d="M185.876 112.249C185.777 112.249 185.689 112.207 185.622 112.142C185.258 115.858 184.834 119.633 184.359 123.418C184.462 123.4 184.57 123.384 184.671 123.365L184.804 124.084C184.629 124.116 184.444 124.145 184.266 124.176C184.099 125.486 183.927 126.797 183.748 128.107L180.977 149.202C181.07 149.177 181.167 149.156 181.259 149.13L181.454 149.835C181.265 149.887 181.068 149.932 180.875 149.981L175.922 187.698L176.642 187.828L184.472 128.203C185.202 122.861 185.831 117.497 186.347 112.249L185.876 112.249Z" fill="#1C3867"></path>
    <path d="M176.105 13.1719H179.669C182.452 13.1719 184.798 15.2215 185.219 17.9556C185.39 18.0009 185.568 18.0403 185.737 18.0871L185.543 18.792C185.461 18.7693 185.375 18.7503 185.292 18.7284L186.268 33.9065L186.675 33.9686L186.62 34.3294L186.292 34.2798L186.633 39.5953C186.809 39.642 186.991 39.6844 187.165 39.7333L186.967 40.4367C186.875 40.4104 186.776 40.3885 186.682 40.363L186.831 42.688C187.049 46.1153 187.223 49.4914 187.354 52.769C187.625 53.4819 187.824 54.2167 187.95 54.9677H188.167C188.032 50.9984 187.828 46.856 187.56 42.6413L186.005 18.3771C185.788 15.0484 183.006 12.4414 179.669 12.4414H176.105V13.1719Z" fill="#1C3867"></path>
    <path d="M165.547 187.699L165.661 188.568L161.015 150.265C160.852 150.23 160.686 150.198 160.525 150.16L160.689 149.448C160.764 149.465 160.846 149.478 160.922 149.494L157.886 124.476C157.647 124.441 157.403 124.409 157.168 124.373L157.279 123.651C157.447 123.677 157.624 123.7 157.795 123.725L157.79 123.682C157.342 119.782 156.949 115.904 156.618 112.147C156.553 112.211 156.465 112.251 156.368 112.251H155.895C156.225 116.002 156.617 119.872 157.065 123.768L164.836 187.829L165.547 187.699Z" fill="#1C3867"></path>
    <path d="M154.949 70.8262C154.949 67.1754 155.013 63.4953 155.108 59.8073C154.994 59.7671 154.889 59.7262 154.795 59.6846C154.765 60.903 154.742 62.0805 154.725 63.2236C154.687 65.5026 154.668 67.797 154.668 70.0424C154.668 78.5003 154.921 87.0283 155.42 95.3884C155.486 96.4994 155.564 97.6068 155.64 98.7156C155.184 90.6667 154.949 82.5908 154.949 74.5836V70.8262Z" fill="#1C3867"></path>
    <path d="M166.555 13.1901V15.2632H176.109V13.1901V12.4597V11.5356H175.379V14.5327H167.285V11.5356H166.555V12.4597V13.1901Z" fill="#1C3867"></path>
    <path d="M167.287 11.5352H175.38H176.111H176.826C177.103 11.5352 177.352 11.3913 177.489 11.1502C177.627 10.9092 177.625 10.6214 177.484 10.3825L175.764 7.47168H174.902L176.854 10.7879C176.845 10.8047 176.832 10.8047 176.825 10.8047L165.829 10.7536L167.873 7.47168H166.995L165.208 10.3701C165.063 10.6053 165.055 10.9019 165.19 11.1437C165.326 11.3854 165.581 11.5359 165.858 11.5359H166.556H167.287V11.5352Z" fill="#1C3867"></path>
    <path d="M169.418 4.98701L171.484 1.67002L173.436 4.98701H174.293L172.114 1.29822C171.838 0.834383 171.09 0.82781 170.805 1.2858L168.523 4.98629L169.418 4.98701Z" fill="#1C3867"></path>
    <path d="M173.44 4.98682H172.289L173.155 7.47109H174.902H175.763H177.613C178.142 7.47109 178.591 7.13728 178.77 6.67052H177.856C177.783 6.71142 177.702 6.74064 177.613 6.74064H173.673L173.317 5.71727H177.613C177.702 5.71727 177.783 5.74649 177.856 5.7874H178.77C178.591 5.32064 178.142 4.98682 177.613 4.98682H174.295H173.44Z" fill="#1C3867"></path>
    <path d="M167.872 7.47206H169.527L170.394 4.98779H169.42H168.525H165.068C164.538 4.98779 164.089 5.32087 163.91 5.78836H164.825C164.898 5.74746 164.978 5.71825 165.068 5.71825H169.364L169.008 6.74161H165.068C164.978 6.74161 164.898 6.71239 164.825 6.67148H163.91C164.089 7.13824 164.538 7.47206 165.068 7.47206H166.993H167.872Z" fill="#1C3867"></path>
    <path d="M177.852 5.78809H177.059V6.67193H177.852H178.766H205.92V5.78809H178.766H177.852ZM205.554 6.3067H177.423V6.15331H205.554V6.3067Z" fill="#1C3867"></path>
    <path d="M164.825 6.67193H165.619V5.78809H164.825H163.91H136.758V6.67193H163.91H164.825ZM137.123 6.15331H165.254V6.3067H137.123V6.15331Z" fill="#1C3867"></path>
    <path d="M170.632 59.0772V58.3462C170.573 58.3462 170.516 58.3447 170.457 58.344V59.0743C170.516 59.0751 170.573 59.0765 170.632 59.0772Z" fill="#1C3867"></path>
    <path d="M171.363 58.379C174.133 58.3753 176.833 58.2862 179.455 58.124C176.832 58.273 174.129 58.3475 171.363 58.3512V58.379Z" fill="#1C3867"></path>
    <path d="M169.726 58.3338C167.128 58.3089 164.58 58.2213 162.098 58.0664C164.576 58.2359 167.12 58.3425 169.726 58.3695V58.3338Z" fill="#1C3867"></path>
    <path d="M186.815 57.4868C186.81 57.6204 186.802 57.7563 186.788 57.8958L186.758 58.1851L186.469 58.2209C184.256 58.4948 181.954 58.7 179.59 58.8476C182.282 58.6935 184.887 58.4597 187.395 58.1558C187.386 57.8074 187.376 57.4597 187.365 57.104C187.362 57.2128 187.362 57.3217 187.355 57.4305C187.179 57.4517 186.993 57.4656 186.815 57.4868Z" fill="#1C3867"></path>
    <path d="M187.359 52.7682C185.147 46.9516 178.308 42.5791 170.468 42.5791C163.536 42.5791 157.473 46.7909 155.368 52.4461C155.061 53.27 154.84 54.1232 154.711 54.9997C154.753 55.0187 154.792 55.0443 154.824 55.0779C154.894 55.1495 154.93 55.2459 154.927 55.3438C154.894 56.3131 154.867 57.24 154.841 58.1502L154.942 58.1626C155.012 58.1706 155.085 58.1765 155.155 58.1845C157.572 58.4701 160.072 58.6885 162.64 58.8383C160.44 58.6987 158.292 58.5074 156.217 58.2583L155.928 58.2239L155.898 57.9332C155.884 57.801 155.875 57.6659 155.867 57.5278C155.69 57.5081 155.505 57.4942 155.328 57.473C155.313 57.2429 155.308 57.0128 155.308 56.7798C155.308 49.4782 162.251 43.3103 170.47 43.3103C179.23 43.3103 186.686 48.9435 187.332 55.8149C187.326 55.6564 187.322 55.5052 187.317 55.3445C187.314 55.2459 187.351 55.1495 187.42 55.0786C187.489 55.007 187.583 54.9676 187.682 54.9676H187.957C187.83 54.2159 187.63 53.4811 187.359 52.7682Z" fill="#1C3867"></path>
    <path d="M170.454 59.107V59.0749V58.3452V43.834L170.078 43.8442C162.495 44.0509 155.844 50.1802 155.844 56.9595C155.844 57.1582 155.85 57.3466 155.861 57.5292C155.868 57.6673 155.877 57.8032 155.891 57.9347L155.921 58.2254L156.21 58.2597C158.285 58.5088 160.434 58.7002 162.633 58.8397C165.057 58.9938 167.545 59.0851 170.085 59.1041L170.454 59.107ZM156.593 57.5694C156.58 57.3656 156.575 57.1618 156.575 56.9588C156.575 50.6696 162.677 44.972 169.724 44.5886V58.3342V58.3693C167.118 58.343 164.574 58.2356 162.096 58.0661C160.219 57.939 158.376 57.7783 156.593 57.5694Z" fill="#1C3867"></path>
    <path d="M170.633 59.1094H171.189C174.069 59.1094 176.873 59.0167 179.594 58.8472C181.958 58.6989 184.26 58.4944 186.473 58.2205L186.762 58.1847L186.792 57.8954C186.807 57.7559 186.814 57.6201 186.82 57.4864C186.828 57.2994 186.832 57.119 186.832 56.9583C186.832 50.0906 179.586 44.084 171.009 43.843L170.634 43.832V58.3461V59.0766L170.633 59.1094ZM186.1 56.9583C186.1 57.1496 186.097 57.3403 186.088 57.5317C183.951 57.7903 181.731 57.9838 179.454 58.1241C176.832 58.2862 174.133 58.3753 171.363 58.379V58.3505V44.5873C179.39 44.9781 186.1 50.5748 186.1 56.9583Z" fill="#1C3867"></path>
    <path d="M169.372 150.447C166.384 150.387 163.486 150.068 160.916 149.493C160.841 149.476 160.758 149.465 160.684 149.447L160.52 150.159C160.68 150.197 160.847 150.229 161.01 150.264C163.562 150.815 166.416 151.131 169.354 151.189L169.372 150.447Z" fill="#1C3867"></path>
    <path d="M172.206 151.164C175.308 151.049 178.26 150.646 180.87 149.982C181.063 149.933 181.26 149.888 181.448 149.836L181.254 149.131C181.162 149.157 181.065 149.178 180.972 149.203C178.348 149.897 175.349 150.316 172.191 150.434L172.206 151.164Z" fill="#1C3867"></path>
    <path d="M172.193 150.434L171.804 130.906C171.788 130.368 171.356 129.947 170.818 129.947C170.287 129.947 169.855 130.362 169.832 130.899L169.374 150.448L169.357 151.191L168.375 193.101C168.574 192.799 168.829 192.54 169.124 192.333L170.563 130.922C170.563 130.911 170.573 130.905 170.575 130.895V130.023H170.94V130.727C171.013 130.77 171.07 130.834 171.073 130.923L172.296 192.27C172.585 192.457 172.835 192.695 173.04 192.97L172.208 151.165L172.193 150.434Z" fill="#1C3867"></path>
    <path d="M164.832 17.1761H165.047C166.842 17.0264 168.682 16.9468 170.542 16.9468C170.674 16.9468 170.803 16.9519 170.934 16.9526V16.6977H171.299V16.9577C173.465 16.9818 175.586 17.1075 177.631 17.331V17.1761H177.996V17.3704C180.584 17.6692 183.04 18.1235 185.293 18.7276C185.375 18.7495 185.462 18.7685 185.543 18.7912L185.738 18.0863C185.568 18.0403 185.391 18.0001 185.219 17.9548C180.88 16.8204 175.823 16.2163 170.542 16.2163C166.002 16.2163 161.563 16.6721 157.655 17.5275C157.477 17.5662 157.293 17.602 157.117 17.6422L157.282 18.3543C157.365 18.3354 157.452 18.3193 157.536 18.3003C159.808 17.7883 162.27 17.4179 164.833 17.1958L164.832 17.1761Z" fill="#1C3867"></path>
    <path d="M186.684 40.3628C186.778 40.3883 186.876 40.4102 186.969 40.4365L187.167 39.7331C186.993 39.6842 186.811 39.6425 186.635 39.5951C182.086 38.3737 176.817 37.7039 171.3 37.6411V37.9062H170.935V37.6352C170.774 37.6345 170.616 37.6279 170.455 37.6279C165.399 37.6279 160.457 38.1524 156.12 39.1385C155.977 39.1707 155.829 39.1991 155.688 39.2328L155.856 39.9435C155.925 39.9274 155.998 39.9128 156.068 39.8974C160.403 38.8923 165.369 38.3591 170.454 38.3591C176.313 38.3591 181.913 39.0538 186.684 40.3628Z" fill="#1C3867"></path>
    <path d="M157.792 123.724C157.62 123.698 157.444 123.676 157.275 123.649L157.164 124.371C157.399 124.408 157.643 124.44 157.883 124.474C161.607 125.009 165.818 125.294 170.128 125.294C175.211 125.294 180.078 124.904 184.261 124.175C184.439 124.145 184.624 124.116 184.799 124.084L184.666 123.365C184.565 123.383 184.457 123.4 184.354 123.418C180.165 124.166 175.258 124.563 170.127 124.563C165.778 124.565 161.53 124.272 157.792 123.724Z" fill="#1C3867"></path>
    <path d="M169.123 106.002C165.297 105.643 162.647 103.903 161.407 102.898C161.315 102.822 161.192 102.799 161.079 102.83C160.965 102.863 160.873 102.948 160.833 103.06L157.634 112.148C157.605 112.232 157.607 112.323 157.64 112.406C158.225 113.854 161.526 121.129 169.058 122.12L169.075 122.121C169.08 122.121 169.085 122.121 169.09 122.121C169.351 122.121 169.564 121.911 169.564 121.652V106.466C169.564 106.224 169.374 106.025 169.123 106.002ZM168.833 121.351C162.132 120.3 159.044 113.871 158.369 112.259L161.354 103.782C162.756 104.831 165.307 106.324 168.833 106.706V121.351Z" fill="#1C3867"></path>
    <path d="M172.129 122.152C172.142 122.152 172.169 122.151 172.181 122.149C180.005 121.319 183.911 113.831 184.614 112.338C184.644 112.273 184.655 112.2 184.644 112.129C184.275 109.663 182.253 104.834 181.401 102.871C181.358 102.773 181.275 102.699 181.172 102.668C181.071 102.634 180.96 102.651 180.869 102.709C177.894 104.599 174.929 105.702 172.057 105.987C171.827 106.01 171.652 106.209 171.652 106.449V121.684C171.653 121.942 171.866 122.152 172.129 122.152ZM172.384 121.391V106.687C175.172 106.366 178.034 105.312 180.898 103.552C181.797 105.642 183.53 109.866 183.904 112.127C183.306 113.36 179.553 120.47 172.384 121.391Z" fill="#1C3867"></path>
    <path d="M181.344 100.869C171.307 106.769 162.846 102.125 160.889 100.869C160.781 100.8 160.694 100.742 160.627 100.696L160.568 100.732C160.608 100.827 160.615 100.932 160.57 101.026C160.566 101.035 160.498 101.179 160.391 101.415C161.582 102.195 165.608 104.531 171.11 104.531C174.287 104.531 177.957 103.734 181.843 101.418C181.734 101.181 181.666 101.035 181.661 101.026C181.631 100.962 181.625 100.894 181.633 100.827L181.528 100.762C181.466 100.798 181.405 100.834 181.344 100.869Z" fill="#1C3867"></path>
    <path d="M177.998 29.5092V17.3706V17.1763H177.633V17.3311V29.5085C177.633 31.5078 179.068 33.1783 181.045 33.4792L186.295 34.2784L186.623 34.328L186.678 33.9672L186.27 33.9051L181.1 33.1184C179.303 32.8452 177.998 31.3273 177.998 29.5092Z" fill="#1C3867"></path>
    <path d="M165.201 29.5092V17.1763H165.05H164.835V17.196V29.5092C164.835 31.3273 163.531 32.8452 161.733 33.1191L156.476 33.919L156.156 33.9679L156.212 34.3288L156.451 34.2922L161.79 33.48C163.765 33.179 165.201 31.5092 165.201 29.5092Z" fill="#1C3867"></path>
    <path d="M175.477 68.829V96.8317C173.082 99.1691 169.231 99.1516 166.859 96.7791L166.753 96.6732V68.6391C166.753 64.2374 163.423 60.58 159.008 60.1315C157.156 59.9438 155.855 59.7064 155.117 59.4252C154.998 59.3799 154.892 59.3339 154.803 59.2871C154.8 59.4208 154.797 59.5523 154.793 59.6845C154.886 59.7261 154.992 59.767 155.106 59.8072C155.9 60.0833 157.188 60.3149 158.97 60.4953C163.198 60.924 166.386 64.4259 166.386 68.6391V96.6476L166.471 96.5935L166.666 96.9033L166.543 96.9799L166.599 97.0362C167.866 98.3028 169.53 98.9368 171.193 98.9368C172.811 98.9368 174.425 98.3327 175.679 97.1348L175.563 97.0625L175.756 96.7513L175.842 96.8046V68.8276C175.842 64.6085 179.023 61.1081 183.241 60.6859C185.183 60.4909 186.585 60.2455 187.441 59.9555C187.438 59.8277 187.436 59.7035 187.433 59.5742C186.63 59.8693 185.214 60.1206 183.205 60.3214C178.8 60.7648 175.477 64.4215 175.477 68.829Z" fill="#1C3867"></path>
    <path d="M171.299 16.6987H170.934V16.9529V37.6357V37.9067H171.299V37.6416V16.9588V16.6987Z" fill="#1C3867"></path>
    <path d="M175.759 96.7524L175.566 97.0636L175.683 97.1359L181.53 100.762L181.635 100.827C181.642 100.774 181.655 100.721 181.684 100.675C181.726 100.608 181.791 100.566 181.863 100.538L175.845 96.8065L175.759 96.7524Z" fill="#1C3867"></path>
    <path d="M166.548 96.9806L166.67 96.904L166.476 96.5942L166.391 96.6483L160.246 100.505C160.37 100.506 160.486 100.569 160.552 100.675C160.563 100.692 160.563 100.713 160.571 100.732L160.63 100.696L166.548 96.9806Z" fill="#1C3867"></path>
    <path d="M170.939 130.726V130.023H170.574V130.895V191.832V192.178H170.939V191.832V130.726Z" fill="#1C3867"></path>
    <path d="M242.296 111.52H188.375L188.432 111.675L188.09 111.802L187.985 111.52H186.178C185.483 107.805 183.303 102.847 182.566 101.234H186.811L186.821 100.504L187.206 100.509C187.32 98.9325 187.426 97.3547 187.521 95.774H187.184V95.0436H187.564C187.989 87.8216 188.22 80.4813 188.274 73.1687L187.703 73.1709L187.702 72.8057L188.277 72.8035C188.282 71.8831 188.297 70.9613 188.297 70.0416C188.297 67.9138 188.279 65.7437 188.244 63.5844L187.876 63.5808L187.883 62.8503L188.234 62.8532C188.199 60.6232 188.141 58.277 188.055 55.6977H189.434V55.4472H189.799V55.6977L239.665 55.697V55.5275H240.03V55.697H243.489V55.3325H244.22V55.7226L276.564 57.827V57.6948H277.295V57.8745L278.752 57.9695V57.6948H279.482V58.0162L286.536 58.4749V58.1331V58.0257H287.266V58.1331V58.5224L288.723 58.6174V58.2127H289.453V58.6648L335.548 61.6641V64.2623H335.553V61.3215V61.0724V60.9329L243.852 54.9673H188.17H187.952H187.678C187.578 54.9673 187.483 55.0075 187.415 55.0783C187.346 55.1499 187.309 55.2463 187.312 55.3442C187.318 55.5049 187.322 55.6554 187.327 55.8146C187.342 56.25 187.356 56.6802 187.368 57.1031C187.379 57.4589 187.388 57.8073 187.399 58.155C187.412 58.6334 187.426 59.1119 187.437 59.5757C187.44 59.705 187.443 59.8284 187.446 59.957C187.473 61.0768 187.495 62.1659 187.51 63.2229C187.548 65.5019 187.567 67.7962 187.567 70.0416C187.567 78.4996 187.314 87.0276 186.816 95.3876C186.713 97.0962 186.601 98.8003 186.477 100.504H181.994C181.948 100.504 181.906 100.521 181.864 100.537C181.792 100.565 181.727 100.607 181.685 100.675C181.656 100.721 181.642 100.774 181.636 100.827C181.628 100.895 181.634 100.962 181.665 101.026C181.669 101.035 181.738 101.181 181.846 101.418C182.517 102.883 184.891 108.233 185.513 111.946C185.526 112.024 185.566 112.09 185.619 112.143C185.686 112.208 185.774 112.25 185.873 112.25H186.343H242.812L242.296 111.52Z" fill="#1C3867"></path>
    <path d="M242.815 111.623L242.881 111.519H242.742L242.815 111.623Z" fill="#1C3867"></path>
    <path d="M335.551 98.917V98.898V96.8521H335.547V98.581L243.799 111.403L243.345 111.467L242.848 112.251H242.996C243.013 112.251 243.03 112.249 243.047 112.247L335.551 99.3173V98.917Z" fill="#1C3867"></path>
    <path d="M243.912 75.6427V75.2775H244.219V64.1199L243.488 64.1133V88.1101L243.756 88.1145L243.749 88.4797L243.488 88.4754V95.0436H243.588L243.813 95.0144L244.219 94.964V75.6427H243.912Z" fill="#1C3867"></path>
    <path d="M244.219 63.3894V55.7226V55.3325H243.488V55.6977V63.3828L244.219 63.3894Z" fill="#1C3867"></path>
    <path d="M243.631 95.771H243.488V101.268L243.944 101.274C243.944 101.274 244.042 101.26 244.219 101.238V95.6987L243.631 95.771Z" fill="#1C3867"></path>
    <path d="M204.821 63.743V63.4216H205.186V63.7466L243.489 64.1133L244.219 64.1199L335.548 64.9935H335.552L335.914 64.9972L335.921 64.2667L335.552 64.263H335.548L244.219 63.3894L243.489 63.3828L188.234 62.854L187.882 62.8511L187.875 63.5815L188.245 63.5844L204.821 63.743Z" fill="#1C3867"></path>
    <path d="M243.485 95.7704H243.628L244.216 95.6981L330.394 85.0568V84.3213L262.413 92.7164L262.481 92.8237L262.173 93.0188L262.012 92.7661L244.216 94.9633L243.81 95.0137L243.585 95.0429H243.485H187.56H187.18V95.7733H187.517L243.485 95.7704Z" fill="#1C3867"></path>
    <path d="M204.887 73.0926L204.837 72.9867L205.167 72.8318L205.184 72.8691V63.7464V63.4214H204.819V63.7428V72.7274L188.274 72.8033L187.699 72.8055L187.701 73.1707L188.271 73.1685L204.887 73.0926Z" fill="#1C3867"></path>
    <path d="M251.347 75.2769H244.217H243.91V75.6421H244.217H251.145L262.014 92.7661L262.174 93.0188L262.483 92.8238L262.414 92.7164L251.4 75.3616L251.347 75.2769Z" fill="#1C3867"></path>
    <path d="M243.988 102.001C243.988 102.001 324.775 91.7006 330.401 90.9841C330.488 90.9724 330.559 90.9636 330.609 90.957L330.517 90.2324C330.488 90.2361 330.44 90.2419 330.401 90.247C325.949 90.8139 249.344 100.581 244.222 101.237C244.046 101.259 243.947 101.272 243.947 101.272L243.491 101.266L187.208 100.507L186.823 100.502L186.812 101.232L243.988 102.001Z" fill="#1C3867"></path>
    <path d="M239.844 59.9357L240.03 59.9386V55.6976V55.5274H239.665V55.6976V59.5675L189.799 58.7757V55.6976V55.4478H189.434V55.6976V59.1358L239.844 59.9357Z" fill="#1C3867"></path>
    <path d="M243.346 111.467L247.183 105.423L330.397 94.1183L330.607 94.0898L330.559 93.7275L330.397 93.7495L246.966 105.083L242.88 111.519L242.815 111.622L242.742 111.519L238.452 105.443L185.947 105.337L185.684 105.336L187.984 111.519L188.088 111.801L188.431 111.674L188.373 111.519L186.21 105.702L238.263 105.808L242.294 111.519L242.81 112.25L242.831 112.279L242.848 112.25L243.346 111.467Z" fill="#1C3867"></path>
    <path d="M243.754 88.1141L243.486 88.1097L212.133 87.5582L205.183 72.8688L205.165 72.8315L204.836 72.9864L204.886 73.0923L211.901 87.919L243.486 88.4749L243.746 88.4793L243.754 88.1141Z" fill="#1C3867"></path>
    <path d="M156.366 112.25C156.463 112.25 156.551 112.209 156.616 112.145C156.671 112.093 156.713 112.025 156.726 111.945C157.348 108.231 159.725 102.875 160.394 101.414C160.502 101.179 160.57 101.035 160.573 101.026C160.618 100.932 160.61 100.826 160.571 100.732C160.563 100.713 160.564 100.692 160.552 100.674C160.486 100.568 160.37 100.506 160.246 100.505L160.243 100.504H155.76C155.716 99.9089 155.682 99.3114 155.642 98.7153C155.567 97.6065 155.488 96.4991 155.421 95.3881C154.922 87.0281 154.67 78.5 154.67 70.0421C154.67 67.7967 154.689 65.5024 154.727 63.2234C154.743 62.0802 154.767 60.9027 154.797 59.6843C154.8 59.5521 154.803 59.4206 154.807 59.2869C154.817 58.9151 154.827 58.5324 154.838 58.1511C154.864 57.2409 154.892 56.314 154.925 55.3447C154.928 55.2461 154.891 55.1497 154.822 55.0788C154.789 55.0452 154.75 55.0196 154.708 55.0006C154.662 54.9802 154.611 54.9678 154.559 54.9678H154.527L98.3605 54.9685L6.68359 60.9334V61.0729V61.322V64.2628H6.68798V61.6646L52.7825 58.6646V58.2132H53.5129V58.6171L54.9694 58.5222V58.1328V58.0255H55.6999V58.1328V58.4747L62.7539 58.0152V57.6938H63.4843V57.9677L64.9409 57.8735V57.6946H65.6713V57.826L98.0158 55.7216V55.3323H98.7462V55.6975H102.206V55.5273H102.571V55.6975H152.437V55.447H152.802V55.6975H154.181C154.095 58.2767 154.036 60.6229 154.002 62.853L154.353 62.8501L154.361 63.5805L153.992 63.5842C153.958 65.7441 153.939 67.9143 153.939 70.0414C153.939 70.9603 153.954 71.8829 153.96 72.8032L154.535 72.8054L154.533 73.1706L153.962 73.1685C154.015 80.4818 154.247 87.8213 154.672 95.0433H155.052V95.7738H154.715C154.811 97.3552 154.916 98.9323 155.031 100.509L155.416 100.504L155.426 101.235H159.672C158.934 102.847 156.754 107.806 156.06 111.52H154.253L154.148 111.802L153.806 111.675L153.863 111.52L99.9398 111.524L99.4263 112.251H155.892H156.366V112.25Z" fill="#1C3867"></path>
    <path d="M6.68798 64.9937H6.68359V73.4443H6.68798V64.9937Z" fill="#1C3867"></path>
    <path d="M98.8901 111.467L6.68798 98.5801V96.8511H6.68359V98.8971V98.9168V99.3171L98.3328 112.125L99.2386 112.25H99.3868L98.8901 111.467Z" fill="#1C3867"></path>
    <path d="M99.4228 111.623L99.4936 111.523H99.3594L99.4228 111.623Z" fill="#1C3867"></path>
    <path d="M6.68798 73.8091H6.68359V96.486H6.68798V73.8091Z" fill="#1C3867"></path>
    <path d="M215.238 77.6594C217.491 77.6594 219.325 75.8259 219.325 73.5732C219.325 71.3205 217.491 69.4871 215.238 69.4871C212.986 69.4871 211.152 71.3205 211.152 73.5732C211.152 75.8259 212.986 77.6594 215.238 77.6594ZM215.238 70.2175C217.089 70.2175 218.594 71.723 218.594 73.5732C218.594 75.4235 217.089 76.9289 215.238 76.9289C213.388 76.9289 211.883 75.4235 211.883 73.5732C211.883 71.723 213.388 70.2175 215.238 70.2175Z" fill="#1C3867"></path>
    <path d="M127 77.6596C129.253 77.6596 131.086 75.8262 131.086 73.5735C131.086 71.3208 129.253 69.4873 127 69.4873C124.748 69.4873 122.914 71.3208 122.914 73.5735C122.915 75.8262 124.748 77.6596 127 77.6596ZM130.356 73.5735C130.356 75.4237 128.85 76.9292 127 76.9292C125.15 76.9292 123.645 75.4237 123.645 73.5735C123.645 71.7232 125.15 70.2178 127 70.2178C128.85 70.2178 130.356 71.7232 130.356 73.5735Z" fill="#1C3867"></path>
    <path d="M5.95312 61.3213V98.9162L6.68358 98.8972V96.8512H6.31324V96.486H6.68358V73.8091H6.31324V73.4439H6.68358V64.9933L6.322 64.9969L6.3147 64.2665L6.68358 64.2628V61.322L5.95312 61.3213ZM6.36218 89.4832L6.27525 90.2078L6.11529 90.1888L6.20221 89.4642L6.36218 89.4832Z" fill="#1C3867"></path>
    <path d="M6.68291 98.9169H5.95246V99.6685C5.95246 100.119 5.77642 100.542 5.45575 100.858C5.13947 101.172 4.72165 101.344 4.28118 101.344C4.19061 101.344 4.0993 101.337 4.00654 101.322L2.53759 101.083C1.71437 100.945 1.06062 100.234 0.828334 99.3201L0.693199 99.4026L0.501821 99.0915L0.756749 98.9351C0.744331 98.8256 0.731183 98.7153 0.731183 98.6013V63.7638C0.731183 61.327 2.18113 59.2606 4.13583 58.7434V58.3716H4.50105V58.6653C4.60258 58.6492 4.70412 58.6324 4.80857 58.6244L4.89184 58.6214C5.47621 58.6214 5.95173 59.0977 5.95173 59.6835V61.0729H6.68218V60.9333V59.6835C6.68218 58.6477 5.78592 57.8128 4.75233 57.8961C2.08764 58.0963 0 60.674 0 63.7638V98.6013C0 100.224 1.01679 101.57 2.41853 101.803L3.88893 102.042C4.02041 102.064 4.15116 102.075 4.28045 102.075C4.91522 102.075 5.51492 101.827 5.96926 101.378C6.42945 100.923 6.68291 100.316 6.68291 99.6685V99.3172V98.9169Z" fill="#1C3867"></path>
    <path d="M98.3421 101.276L98.7468 101.271V95.7732H98.6467L98.3356 95.7382L98.0156 95.6987V101.235C98.2231 101.26 98.3421 101.276 98.3421 101.276Z" fill="#1C3867"></path>
    <path d="M98.7461 63.3828V55.6977V55.3325H98.0156V55.7218V63.3894L98.7461 63.3828Z" fill="#1C3867"></path>
    <path d="M98.3224 75.2775V75.6427H98.0156V94.9632L98.6891 95.0465H98.7461V88.4754L98.4846 88.4797L98.4773 88.1145L98.7461 88.1101V64.1133L98.0156 64.1199V75.2775H98.3224Z" fill="#1C3867"></path>
    <path d="M5.95312 98.9167H6.68419V98.897L5.95312 98.9167Z" fill="#1C3867"></path>
    <path d="M6.68419 61.0728H5.95312V61.322H6.68419V61.0728Z" fill="#1C3867"></path>
    <path d="M6.31641 64.2667L6.32298 64.9972L6.68455 64.9935H6.68894L98.0182 64.1199L98.7486 64.1133L137.051 63.7466V63.4216H137.416V63.743L153.993 63.5844L154.362 63.5815L154.355 62.8511L154.004 62.854L98.7486 63.3828L98.0182 63.3894L6.68894 64.263H6.68455L6.31641 64.2667Z" fill="#1C3867"></path>
    <path d="M6.20077 89.4536L6.11328 90.1787L6.27296 90.198L6.36045 89.4729L6.20077 89.4536Z" fill="#1C3867"></path>
    <path d="M98.689 95.0458L98.0155 94.9625L80.2187 92.7653L80.058 93.0188L79.7498 92.8237L79.8185 92.7157L11.8359 84.3213V85.0568L98.0155 95.6988L98.3347 95.7383L98.6459 95.7733H98.7459H154.714H155.051V95.0429H154.671L98.7459 95.0458H98.689Z" fill="#1C3867"></path>
    <path d="M53.1416 61.9711C53.3527 62.1713 53.6369 62.2845 53.9261 62.2845C53.9458 62.2845 53.9663 62.2838 53.986 62.2823L64.5929 61.7257C65.1992 61.6943 65.674 61.1939 65.674 60.5862V57.8258V57.6943H64.9435V57.8733V60.5862C64.9435 60.8046 64.7726 60.985 64.5542 60.996L53.9473 61.5526C53.8392 61.5584 53.726 61.519 53.6442 61.4408C53.5616 61.3627 53.5156 61.2568 53.5156 61.1428V58.6176V58.2137H52.7852V58.6651V61.1435C52.7859 61.4547 52.9159 61.7564 53.1416 61.9711Z" fill="#1C3867"></path>
    <path d="M55.6998 58.0269H54.9688V58.1343H55.6998V58.0269Z" fill="#1C3867"></path>
    <path d="M55.2376 60.5278C55.3983 60.6797 55.6123 60.7644 55.8314 60.7644C55.8468 60.7644 55.8614 60.7637 55.8767 60.763L62.6685 60.4072C63.1257 60.3831 63.4844 60.004 63.4844 59.546V57.9683V57.6943H62.7539V58.0157V59.5453C62.7539 59.6154 62.6991 59.6731 62.629 59.6775L55.838 60.0332C55.7891 60.0318 55.7562 60.0121 55.7401 59.9967C55.7248 59.9821 55.6992 59.9507 55.6992 59.9018V58.4745V58.1326H54.9688V58.5219V59.9018C54.9695 60.1384 55.0674 60.3656 55.2376 60.5278Z" fill="#1C3867"></path>
    <path d="M137.416 63.7428V63.4214H137.051V63.7464V72.8691L137.069 72.8318L137.398 72.9867L137.348 73.0926L153.964 73.1685L154.535 73.1707L154.536 72.8055L153.961 72.8033L137.416 72.7274V63.7428Z" fill="#1C3867"></path>
    <path d="M98.0157 75.6421H98.3225V75.2769H98.0157H90.8865L79.8187 92.7157L79.75 92.8238L80.0582 93.0188L80.2189 92.7654L91.0874 75.6421H98.0157Z" fill="#1C3867"></path>
    <path d="M11.6287 90.9582L11.7215 90.2336C11.7493 90.2372 11.7975 90.2431 11.8369 90.2482V85.0576V84.322V73.4448H6.68722H6.68284H6.3125V73.8101H6.68284H6.68722H11.4717V96.487H6.68722H6.68284H6.3125V96.8522H6.68284H6.68722H11.8369V94.1196L11.6273 94.0911L11.6755 93.7288L11.8369 93.7507V90.9852C11.7493 90.9735 11.6791 90.9647 11.6287 90.9582Z" fill="#1C3867"></path>
    <path d="M98.7425 101.271L98.3378 101.276C98.3378 101.276 98.2187 101.261 98.012 101.235C92.4993 100.532 16.2648 90.8124 11.8332 90.247C11.7937 90.2419 11.7455 90.2361 11.7178 90.2324L11.625 90.957C11.6754 90.9636 11.7455 90.9724 11.8332 90.9833C17.4511 91.6992 98.2465 102 98.2969 102.003L155.421 101.233L155.411 100.503L155.025 100.508L98.7425 101.271Z" fill="#1C3867"></path>
    <path d="M4.50241 58.665V58.3721H4.13718V58.7431V96.8596L0.758105 98.9349L0.503906 99.0919L0.694556 99.4023L0.829689 99.3198L4.50241 97.0634V58.665Z" fill="#1C3867"></path>
    <path d="M152.803 59.1358V55.6976V55.4478H152.438V55.6976V58.7757L102.572 59.5675V55.6976V55.5274H102.207V55.6976V59.9386L152.803 59.1358Z" fill="#1C3867"></path>
    <path d="M99.9353 111.523L103.97 105.808L156.022 105.702L153.859 111.519L153.802 111.674L154.144 111.801L154.249 111.519L156.548 105.336L103.875 105.443H103.78L99.4875 111.523L99.4174 111.622L99.3546 111.523L95.2662 105.083L11.8346 93.7495L11.6732 93.7275L11.625 94.0898L11.8346 94.1183L95.0493 105.423L98.8871 111.467L99.3838 112.25L99.4021 112.279L99.4225 112.25L99.9353 111.523Z" fill="#1C3867"></path>
    <path d="M98.7454 88.1097L98.4766 88.1141L98.4839 88.4793L98.7454 88.4749L130.218 87.9212L130.33 87.919L137.345 73.0923L137.395 72.9864L137.066 72.8315L137.047 72.8688L130.097 87.5582L98.7454 88.1097Z" fill="#1C3867"></path>
  </g>
</svg>
