<?xml version="1.0" encoding="UTF-8"?>
<svg xmlns="http://www.w3.org/2000/svg" width="296" height="148" viewBox="0 0 296 148" fill="none">
  <g opacity="0.4">
    <path d="M18.043 70.1906H20.1335V69.2487C20.1335 69.1962 20.1532 69.1492 20.1575 69.0967H18.043V70.1906Z" fill="#1C3867"></path>
    <path d="M20.1422 84.229H18.043V85.3229H20.1903C20.1685 84.9597 20.1455 84.5966 20.1422 84.229Z" fill="#1C3867"></path>
    <path d="M49.9832 107.728C50.1156 107.625 50.2884 107.59 50.4525 107.627C49.3061 107.343 48.1586 107.05 47.0121 106.754L37.4873 104.277C34.8827 103.701 32.4848 102.619 30.3648 101.172C30.3495 101.216 30.3374 101.259 30.3221 101.301L29.8047 101.122C29.8364 101.031 29.8638 100.939 29.8955 100.848C24.6118 97.0262 21.2217 90.8127 21.2217 84.0271V69.2481C21.2217 68.8784 21.4646 68.5448 21.8103 68.4354C24.4138 67.6149 27.794 66.9498 31.9652 66.4335C31.9236 66.2256 31.8963 66.0987 31.893 66.0856L32.4268 65.9642C32.4301 65.9795 32.4618 66.1239 32.51 66.3668C39.7299 65.5102 49.2711 65.088 61.3229 65.088C64.5784 65.088 67.5539 65.1153 70.0546 65.1394C70.9779 65.1481 71.8344 65.1558 72.6188 65.1623L72.5105 65.1065L72.761 64.6198L73.8319 65.17C74.124 65.1711 74.4095 65.1722 74.6731 65.1722C76.5525 65.1722 77.3609 65.1394 77.7449 65.0759C77.6224 65.007 77.5349 64.9589 77.5283 64.9545C77.2657 64.8046 77.175 64.471 77.3248 64.2084C77.4747 63.9426 77.8105 63.8562 78.0709 64.005C78.084 64.0126 78.3367 64.156 78.7611 64.389L79.6275 63.6659C79.4569 63.574 79.2983 63.4887 79.1571 63.4121L79.4175 62.9308C79.6089 63.0347 79.8365 63.1572 80.0804 63.2874L82.207 61.513H81.3866V60.966H82.8623L99.7755 46.85C100.396 46.3326 101.041 45.8502 101.705 45.3973L101.146 45.3666C100.853 45.3491 100.633 45.1052 100.636 44.8164C100.104 45.1971 99.5796 45.5909 99.0753 46.011L77.5261 63.9995C77.3084 64.0378 76.6192 64.0782 74.6731 64.0782C73.4359 64.0782 71.8749 64.0629 70.0644 64.0465C67.5615 64.0235 64.5806 63.9951 61.3229 63.9951C41.77 63.9951 28.7381 65.1076 21.4821 67.3939C20.7218 67.6335 20.2142 68.3096 20.153 69.0983C20.1486 69.1497 20.1289 69.1967 20.1289 69.2503V70.1922V84.0282C20.1289 84.096 20.1366 84.1617 20.1377 84.2306C20.1409 84.5971 20.1639 84.9602 20.1858 85.3245C20.7689 94.9401 27.7547 103.248 37.2303 105.342L46.7376 107.816C47.7505 108.076 48.7613 108.334 49.7732 108.586V108.16C49.7732 107.991 49.8509 107.831 49.9832 107.728Z" fill="#1C3867"></path>
    <path d="M396.412 84.8585C395.665 86.634 394.703 88.2913 393.55 89.7965L393.854 89.7725C394.106 89.7407 394.278 89.9245 394.294 90.151C394.311 90.3763 394.142 90.5743 393.915 90.5907L392.836 90.6728C389.083 95.0955 383.672 98.0447 377.597 98.5676L328.41 102.767L240.026 109.273C239.96 109.395 239.903 109.518 239.835 109.64L239.356 109.376C239.366 109.357 239.374 109.338 239.384 109.321L223.337 110.502C205.155 111.842 186.737 112.813 168.321 113.421C168.28 113.555 168.244 113.698 168.202 113.83L167.681 113.666C167.704 113.594 167.723 113.514 167.745 113.441C164.647 113.541 161.549 113.632 158.452 113.712C158.424 114.099 158.288 114.47 158.051 114.816C179.9 114.259 201.824 113.186 223.417 111.594L328.495 103.859L377.689 99.6583C386.852 98.8684 394.601 92.8377 397.755 84.4702L396.412 84.8585Z" fill="#1C3867"></path>
    <path d="M141.526 114.119L125.241 114.899C115.292 115.373 105.113 115.272 95.0352 114.593C86.9018 114.033 78.7641 113.094 70.8441 111.798C70.2359 111.699 69.6309 111.587 69.0227 111.483C68.9702 111.594 68.9253 111.703 68.8728 111.814L68.8706 111.813C68.8706 111.82 68.875 111.827 68.875 111.836C68.875 112.138 68.63 112.383 68.3281 112.383C68.3237 112.384 68.3149 112.384 68.3062 112.383H67.8008C68.7558 112.55 69.7097 112.723 70.6669 112.878C78.6197 114.18 86.7924 115.124 94.9608 115.685C100.908 116.084 106.924 116.288 112.837 116.288C116.984 116.288 121.175 116.188 125.293 115.99L142.286 115.176C141.937 114.848 141.679 114.494 141.526 114.119Z" fill="#1C3867"></path>
    <path d="M178.168 49.6426C179.5 50.3296 180.812 51.0571 182.077 51.8655L199.726 63.1559C199.756 63.0782 199.796 63.0082 199.822 62.9294L200.342 63.1023C200.301 63.2248 200.24 63.3353 200.192 63.4545L207.522 68.1442L210.422 69.6669C210.62 69.5969 210.823 69.5313 211.017 69.4602L211.206 69.9732C211.166 69.9874 211.125 70.0006 211.085 70.0159L212.524 70.7707C212.681 70.7149 212.842 70.6635 213 70.6055C213.286 70.5049 213.598 70.6481 213.702 70.9315C213.806 71.2159 213.659 71.5299 213.376 71.6338C213.346 71.6447 213.317 71.6535 213.287 71.6644L239.213 70.8779C239.148 70.7674 239.103 70.6963 239.096 70.6864L239.556 70.39C239.567 70.4064 239.67 70.5705 239.835 70.8593L312.893 68.6419C312.89 68.6376 312.88 68.6167 312.88 68.6146L313.362 68.3586C313.366 68.3662 313.42 68.4723 313.495 68.6233L330.554 68.1059C331.469 68.0785 332.379 68.003 333.28 67.8827L333.027 67.5381C332.857 67.3051 332.903 66.9835 333.12 66.7997C332.261 66.9135 331.393 66.9846 330.521 67.0109L213.341 70.5672L182.667 50.9455C182.031 50.5385 181.376 50.1622 180.722 49.7848L178.168 49.6426Z" fill="#1C3867"></path>
    <path d="M33.4453 86.1092C35.3509 86.3783 49.735 88.3561 73.3419 90.3919C73.343 90.2092 73.3452 90.0244 73.3441 89.8439C49.6693 87.8015 35.2842 85.8172 33.4924 85.5645C33.4781 85.745 33.4606 85.9276 33.4453 86.1092Z" fill="#1C3867"></path>
    <path d="M171.237 94.4786C171.226 94.6624 171.214 94.8451 171.203 95.0289C175.978 95.0792 180.875 95.1077 185.898 95.1077C203.914 95.1077 223.472 94.7532 244.172 93.8704C244.189 93.6877 244.207 93.5029 244.222 93.3213C217.739 94.4535 193.149 94.7117 171.237 94.4786Z" fill="#1C3867"></path>
    <path d="M159.527 94.8539C163.154 94.9239 166.861 94.9797 170.655 95.0223C170.666 94.8386 170.679 94.657 170.69 94.4732C167.342 94.436 164.049 94.39 160.83 94.332C160.408 94.5278 159.975 94.7051 159.527 94.8539Z" fill="#1C3867"></path>
    <path d="M317.919 88.5478L317.372 88.5325C317.375 88.3914 317.37 88.2558 317.371 88.1169C292.119 90.6624 267.741 92.3098 244.768 93.2999C244.755 93.4814 244.735 93.6652 244.719 93.8479C272.115 92.6675 301.507 90.5563 332 87.0994C331.972 87.0065 331.929 86.9233 331.917 86.8227C331.906 86.7297 331.929 86.6455 331.932 86.5547C327.234 87.0874 322.56 87.5895 317.917 88.0588C317.917 88.2229 317.923 88.3827 317.919 88.5478Z" fill="#1C3867"></path>
    <path d="M101.27 92.4697C101.291 92.4708 101.311 92.473 101.333 92.4741V92.4697H101.27Z" fill="#1C3867"></path>
    <path d="M99.4043 91.8029C90.0282 91.1968 81.4879 90.5415 73.8917 89.8906C73.8928 90.0722 73.8917 90.256 73.8906 90.4387C81.7505 91.1126 90.6135 91.7897 100.37 92.4133C99.984 92.317 99.6504 92.0993 99.4043 91.8029Z" fill="#1C3867"></path>
    <path d="M18.0427 84.2288V70.1904V69.0965V67.7903C18.0427 67.111 17.4903 66.5586 16.811 66.5586C16.5933 66.5586 16.3767 66.6187 16.1863 66.7303L15.6602 67.0421V68.3318L16.8121 67.6525C16.8679 67.6525 16.9499 67.6963 16.9499 67.7903V86.5993C16.9499 86.7043 16.8558 86.7383 16.811 86.7383L15.6602 86.0305V87.3366L16.1655 87.6484C16.3614 87.7687 16.5845 87.8322 16.811 87.8322C17.4903 87.8322 18.0438 87.2787 18.0438 86.5993V85.3227L18.0427 84.2288Z" fill="#1C3867"></path>
    <path d="M12.0223 83.7938L1.15963 77.1122C1.10493 77.0793 1.09399 77.0301 1.09399 76.9951C1.09399 76.959 1.10712 76.9098 1.16181 76.8781L12.0223 70.4753V69.1899L0.6061 75.9351C0.230884 76.1561 0.00444012 76.5488 6.44167e-05 76.9842C-0.00431129 77.4185 0.214474 77.8155 0.584221 78.0442L12.0212 85.0956V83.7938H12.0223Z" fill="#1C3867"></path>
    <path d="M95.2963 72.4824C97.1647 72.4824 98.9971 71.6575 100.231 70.1654C103.56 66.143 116.331 49.0789 118.392 46.3222L117.082 46.25C114.068 50.2756 102.516 65.688 99.3876 69.4697C97.9895 71.1598 95.6661 71.8183 93.6007 71.1051C87.1684 68.8833 80.8127 65.5108 78.7671 64.3884C78.3415 64.1554 78.0899 64.0121 78.0768 64.0045C77.8176 63.8546 77.4806 63.941 77.3308 64.2079C77.1798 64.4694 77.2706 64.8041 77.5342 64.954C77.5408 64.9583 77.6283 65.0076 77.7508 65.0754C79.0088 65.781 86.0734 69.6634 93.2441 72.14C93.9136 72.3697 94.6071 72.4824 95.2963 72.4824Z" fill="#1C3867"></path>
    <path d="M94.4675 69.7957C96.1204 69.7957 97.7405 69.0661 98.8311 67.7479C101.802 64.1544 112.659 49.662 115.285 46.1494L114.63 46.1133C112.564 48.8733 104.998 58.9713 100.708 64.4978C100.727 64.5274 100.75 64.5536 100.768 64.5832L100.529 64.7287C99.6439 65.8674 98.9088 66.7962 98.4089 67.4C97.0612 69.03 94.8186 69.6623 92.8299 68.9753C87.6468 67.1845 82.5645 64.6105 80.0834 63.2857C79.8395 63.1556 79.6119 63.033 79.4205 62.9291L79.1602 63.4105C79.3013 63.487 79.4599 63.5723 79.6305 63.6642C82.0481 64.9616 87.2968 67.6429 92.6516 69.4916C93.2456 69.6962 93.8581 69.7957 94.4675 69.7957Z" fill="#1C3867"></path>
    <path d="M101.336 74.7866V76.2011H102.43V74.7866C102.43 74.5678 102.497 74.3568 102.614 74.1861L122.601 46.5546L121.302 46.4824L101.721 73.5538C101.468 73.9192 101.336 74.3447 101.336 74.7866Z" fill="#1C3867"></path>
    <path d="M105.998 94.3821H103.496C102.909 94.3821 102.43 93.9029 102.43 93.3144V92.4688H101.336V92.4732V93.3144C101.336 94.5057 102.305 95.476 103.496 95.476H105.49C105.656 95.1172 105.825 94.7529 105.998 94.3821Z" fill="#1C3867"></path>
    <path d="M102.43 80.0625H101.336V88.6093H102.43V80.0625Z" fill="#1C3867"></path>
    <path d="M166.813 83.2811C166.813 89.4027 161.832 94.3823 155.712 94.3823H112.111C111.935 94.752 111.763 95.1174 111.594 95.4762H155.713C157.05 95.4762 158.333 95.252 159.537 94.8538C159.985 94.705 160.418 94.5278 160.84 94.3319C165.007 92.3902 167.909 88.1742 167.909 83.2811V49.7217C167.909 49.4974 167.875 49.2841 167.843 49.0686L166.736 49.0073C166.787 49.2381 166.815 49.4766 166.815 49.7217V83.2811H166.813Z" fill="#1C3867"></path>
    <path d="M117.753 70.4338L113.865 70.4075C113.276 70.4075 112.762 70.0969 112.49 69.5751C112.217 69.0533 112.255 68.4549 112.592 67.9703L124.254 51.173C124.473 50.8591 124.831 50.6709 125.218 50.6709L127.865 50.6808L127.866 50.6775C127.328 50.4379 126.872 50.0529 126.527 49.5825L125.213 49.5781C124.474 49.5781 123.781 49.9402 123.356 50.5495L111.692 67.3478C111.129 68.1595 111.063 69.2075 111.522 70.0838C111.979 70.9589 112.877 71.5026 113.863 71.5026L117.204 71.5244C117.386 71.159 117.57 70.7959 117.753 70.4338Z" fill="#1C3867"></path>
    <path d="M163.273 70.7386L123.809 70.475C123.629 70.8371 123.447 71.2003 123.266 71.5657L163.816 71.8358H163.82C163.964 71.8358 164.103 71.7789 164.205 71.6761C164.309 71.5733 164.367 71.4333 164.367 71.2889V50.664C164.367 50.1411 163.942 49.7177 163.423 49.7177L140.913 49.6357C140.615 50.0919 140.205 50.4594 139.727 50.7253L163.273 50.8106V70.7386Z" fill="#1C3867"></path>
    <path d="M158.397 73.3921H151.054C149.734 73.3921 148.66 74.4663 148.66 75.7856V76.0656C148.66 77.3849 149.733 78.4592 151.054 78.4592H158.397C159.716 78.4592 160.791 77.3849 160.791 76.0656V75.7856C160.791 74.4663 159.716 73.3921 158.397 73.3921ZM159.697 76.0645C159.697 76.7811 159.115 77.3641 158.397 77.3641H151.054C150.337 77.3641 149.754 76.7822 149.754 76.0645V75.7845C149.754 75.068 150.336 74.4849 151.054 74.4849H158.397C159.114 74.4849 159.697 75.0669 159.697 75.7845V76.0645Z" fill="#1C3867"></path>
    <path d="M102.425 80.0622H102.903C103.909 80.0622 104.727 79.2439 104.727 78.2385V78.0242C104.727 77.0188 103.909 76.2017 102.903 76.2017H102.425H101.331H100.804C99.7987 76.2017 98.9805 77.0188 98.9805 78.0242V78.2385C98.9805 79.2439 99.7987 80.0622 100.804 80.0622H101.331H102.425ZM99.8009 78.2385V78.0242C99.8009 77.4717 100.251 77.0221 100.804 77.0221H102.903C103.457 77.0221 103.906 77.4717 103.906 78.0242V78.2385C103.906 78.7921 103.457 79.2417 102.903 79.2417H100.804C100.251 79.2417 99.8009 78.791 99.8009 78.2385Z" fill="#1C3867"></path>
    <path d="M102.425 92.4703H102.903C103.909 92.4703 104.727 91.6531 104.727 90.6478V90.4334C104.727 89.4281 103.909 88.6099 102.903 88.6099H102.425H101.331H100.804C99.7987 88.6099 98.9805 89.4281 98.9805 90.4334V90.6478C98.9805 91.0876 99.1435 91.4869 99.4038 91.8019C99.65 92.0984 99.9825 92.3171 100.369 92.4123C100.509 92.4473 100.653 92.4703 100.804 92.4703H101.269H101.332H102.425ZM99.8009 90.6478V90.4334C99.8009 89.8799 100.251 89.4303 100.804 89.4303H102.903C103.457 89.4303 103.906 89.8799 103.906 90.4334V90.6478C103.906 91.2003 103.457 91.6499 102.903 91.6499H100.804C100.251 91.6499 99.8009 91.2003 99.8009 90.6478Z" fill="#1C3867"></path>
    <path d="M179.746 74.0773C181.038 75.7827 183.04 76.7749 185.158 76.7749C185.272 76.7749 185.387 76.7727 185.502 76.7662C191.484 76.4621 203.033 75.3933 213.283 71.6619C213.312 71.651 213.342 71.6422 213.372 71.6313C213.655 71.5273 213.801 71.2133 213.697 70.9289C213.594 70.6456 213.282 70.5023 212.995 70.603C212.838 70.6609 212.677 70.7124 212.519 70.7681C202.5 74.3376 191.292 75.3758 185.446 75.6733C183.56 75.7619 181.76 74.9229 180.619 73.4176L178.574 70.6927C173.956 64.5416 171.372 56.9453 171.246 49.2561L170.141 49.1948C170.254 57.1389 172.927 64.9912 177.7 71.348L179.746 74.0773Z" fill="#1C3867"></path>
    <path d="M179.067 69.0704L179.471 69.6568C181.08 72.0065 182.896 74.6604 186.059 74.6604C186.157 74.6604 186.255 74.6571 186.355 74.6528C192.779 74.3257 203.088 72.9134 211.081 70.0134C211.12 69.9992 211.162 69.986 211.201 69.9707L211.013 69.4577C210.818 69.5288 210.616 69.5944 210.418 69.6645C202.552 72.4288 192.587 73.7852 186.326 74.1047C183.288 74.2283 181.498 71.6488 179.921 69.3461L179.515 68.7565C179.302 68.4491 179.088 68.1297 178.874 67.7993H178.472V67.2523H178.533C175.554 62.4642 172.804 55.6971 172.572 49.791C172.566 49.6368 172.558 49.4815 172.556 49.3294L172.008 49.2988C172.009 49.3656 172.013 49.4323 172.014 49.499C172.181 56.2343 175.64 64.1368 179.067 69.0704Z" fill="#1C3867"></path>
    <path d="M108.227 102.824C110.8 103.537 112.588 104.916 112.588 106.457C112.588 108.706 108.789 110.605 104.292 110.605C99.7955 110.605 95.9963 108.706 95.9963 106.457C95.9963 104.531 98.7869 102.865 102.413 102.425C102.562 102.061 102.722 101.678 102.892 101.276C98.3165 101.644 94.9023 103.784 94.9023 106.456C94.9023 109.397 99.0264 111.698 104.292 111.698C109.557 111.698 113.682 109.395 113.682 106.456C113.682 104.406 111.673 102.67 108.675 101.804C108.516 102.16 108.367 102.5 108.227 102.824Z" fill="#1C3867"></path>
    <path d="M112.1 94.3822C115.261 87.7224 119.383 79.3517 123.263 71.5651C123.445 71.1998 123.626 70.8366 123.807 70.4745C127.87 62.3302 131.598 54.9604 133.578 51.0584L132.364 51.0332C127.173 61.2614 111.963 91.3794 107.14 102.58H107.639V103.127H106.908C106.305 104.552 105.886 105.642 105.726 106.253C105.719 106.281 105.724 106.307 105.722 106.334C105.694 106.599 105.852 106.852 106.118 106.921C106.164 106.934 106.211 106.939 106.256 106.939C106.5 106.939 106.721 106.776 106.784 106.53C106.961 105.851 107.468 104.565 108.221 102.825C108.361 102.501 108.51 102.161 108.668 101.806C109.454 100.03 110.447 97.8817 111.581 95.4772C111.752 95.1173 111.923 94.7531 112.1 94.3822Z" fill="#1C3867"></path>
    <path d="M102.41 102.425C101.821 103.865 101.405 105.01 101.205 105.774C101.129 106.067 101.304 106.365 101.596 106.44C101.892 106.524 102.187 106.339 102.262 106.049C102.268 106.027 102.28 105.994 102.286 105.971C104.144 99.091 123.468 61.5475 128.959 50.943C128.573 50.9134 128.201 50.8303 127.862 50.6782L127.861 50.6815C125.772 54.7115 121.908 62.2027 117.749 70.4345C117.566 70.7966 117.382 71.1598 117.199 71.5252C113.246 79.3632 109.093 87.747 105.99 94.3839C105.817 94.7536 105.647 95.119 105.482 95.4778C104.472 97.658 103.591 99.6204 102.887 101.279C102.718 101.678 102.558 102.062 102.41 102.425Z" fill="#1C3867"></path>
    <path d="M126.522 49.5827C126.867 50.0531 127.323 50.4381 127.861 50.6777C128.201 50.8298 128.572 50.9129 128.959 50.9424C129.019 50.9468 129.076 50.9632 129.136 50.9643L130.395 50.9906L130.548 50.6788L131.039 50.9206L130.999 51.0037L132.365 51.0322L133.579 51.0573L138.047 51.1525C138.051 51.1525 138.116 51.1536 138.12 51.1536C138.706 51.1536 139.247 50.9895 139.725 50.7226C140.202 50.4578 140.613 50.0892 140.911 49.6331C141.253 49.1091 141.457 48.4855 141.457 47.8138V47.6016L140.363 47.5415V47.815C140.363 49.0522 139.356 50.0597 138.12 50.0597V50.6012L138.07 50.0586L129.159 49.8693C127.948 49.8442 126.961 48.8377 126.961 47.6257V46.7976L125.867 46.7363V47.6257C125.868 48.3564 126.117 49.0303 126.522 49.5827Z" fill="#1C3867"></path>
    <path d="M101.146 45.3651L101.705 45.3958L114.624 46.1134L115.279 46.1495L117.075 46.2491L118.385 46.3212L121.293 46.4831L122.591 46.5553L125.867 46.738L126.961 46.7993L140.362 47.5442L141.456 47.6044L166.723 49.0079L167.83 49.0692L168.629 49.114L168.628 49.1075L169.171 49.032C169.172 49.0419 169.179 49.0966 169.186 49.1458L170.14 49.1993L171.245 49.2606L171.588 49.2803L172.006 49.3033L172.554 49.3339L178.163 49.6457L180.716 49.7868L188.472 50.2178C188.656 50.2287 188.833 50.2353 189.009 50.2353C189.188 50.2353 189.366 50.2287 189.506 50.2156C190.416 50.2036 191.302 50.0614 192.123 49.7944C195.038 48.9313 197.014 46.8025 197.158 44.3675C197.34 40.8746 193.76 37.8258 189.136 37.5698L108.678 38.8125C106.574 38.8486 104.607 39.4612 103.136 40.5377C102.844 40.7543 102.569 40.9938 102.326 41.2411C101.297 42.2529 100.709 43.4792 100.633 44.7876C100.633 44.7974 100.637 44.805 100.636 44.8149C100.634 45.1037 100.854 45.3476 101.146 45.3651ZM105.185 45.0468L105.298 44.5042L102.267 44.3358L101.796 44.3084C101.964 43.4759 102.408 42.6927 103.1 42.0134C103.31 41.799 103.54 41.5977 103.783 41.4172C105.072 40.4742 106.817 39.936 108.695 39.9042L189.114 38.6605C189.224 38.667 189.332 38.6801 189.44 38.69L189.896 38.2119L190.291 38.5904L190.117 38.7731C193.606 39.3255 196.203 41.6633 196.065 44.304C195.948 46.2698 194.279 48.0124 191.8 48.7464C191.069 48.9838 190.292 49.1086 189.454 49.1206C189.154 49.1447 188.854 49.1403 188.533 49.1227L105.851 44.5338L105.72 45.1584L105.185 45.0468Z" fill="#1C3867"></path>
    <path d="M158.459 113.71C158.463 113.674 158.472 113.64 158.473 113.604C158.519 111.328 154.876 109.536 149.998 109.437L149.609 109.432C144.952 109.432 141.407 111.077 141.364 113.258C141.358 113.553 141.417 113.841 141.53 114.117C141.683 114.493 141.941 114.847 142.29 115.175C143.336 116.161 145.202 116.905 147.526 117.237L146.792 115.998C144.117 115.444 142.438 114.302 142.459 113.279C142.485 111.95 145.365 110.526 149.61 110.526L149.978 110.53C154.376 110.619 157.408 112.21 157.381 113.582C157.362 114.525 155.902 115.514 153.541 116.01L154.125 116.997C155.993 116.547 157.401 115.774 158.06 114.813C158.295 114.469 158.431 114.098 158.459 113.71Z" fill="#1C3867"></path>
    <path d="M153.538 116.01L151.521 112.605C151.365 112.345 151.03 112.26 150.771 112.412C150.586 112.523 150.495 112.724 150.509 112.924C150.515 113.006 150.534 113.087 150.578 113.163L151.126 114.088H151.538V114.635H151.45L154.929 120.506L156.211 120.524L154.121 116.997L153.538 116.01Z" fill="#1C3867"></path>
    <path d="M150.695 120.449L146.422 113.233L146.284 113.001C146.129 112.742 145.793 112.658 145.534 112.809C145.275 112.964 145.188 113.299 145.341 113.558L146.788 116L147.522 117.239L149.413 120.431L150.695 120.449Z" fill="#1C3867"></path>
    <path d="M61.0423 112.381L59.5469 121.63L60.1431 121.666C60.3115 121.677 60.4745 121.709 60.6353 121.745L62.1493 112.38L61.0423 112.381Z" fill="#1C3867"></path>
    <path d="M56.0894 121.417L57.4907 112.381H56.3837L54.9922 121.35L56.0894 121.417Z" fill="#1C3867"></path>
    <path d="M68.3275 112.382C68.6294 112.382 68.8745 112.137 68.8745 111.835C68.8745 111.827 68.8701 111.82 68.8701 111.812L68.3789 111.578C68.4205 111.491 68.4544 111.408 68.4949 111.322C68.4468 111.305 68.3975 111.289 68.3439 111.287L66.237 111C60.9501 110.039 55.638 108.905 50.4517 107.626C50.2887 107.589 50.1147 107.624 49.9824 107.727C49.85 107.831 49.7734 107.989 49.7734 108.158V108.583V110.062C49.7734 111.341 50.8138 112.382 52.0926 112.382H56.3818H57.4889H61.0398H62.1479H67.7992H68.3045C68.3155 112.383 68.3231 112.383 68.3275 112.382ZM61.8854 111.288H52.0948C51.4198 111.288 50.8696 110.737 50.8696 110.062V108.857C54.4981 109.74 58.1835 110.554 61.8854 111.288Z" fill="#1C3867"></path>
    <path d="M59.5458 121.631L56.089 121.418L54.9918 121.351L54.8649 121.343C53.1901 121.239 51.7986 122.493 51.6641 124.119L52.7656 124.126C52.8871 123.168 53.6999 122.431 54.6778 122.431L60.0774 122.758C60.5938 122.79 61.0664 123.021 61.4098 123.409C61.61 123.636 61.7435 123.902 61.8201 124.185L62.9413 124.193C62.8495 123.638 62.611 123.117 62.2292 122.685C61.8048 122.204 61.2501 121.886 60.6364 121.747C60.4756 121.709 60.3115 121.678 60.1442 121.668L59.5458 121.631Z" fill="#1C3867"></path>
    <path d="M162.52 138.959C160.898 142.662 157.203 145.259 152.908 145.259C148.875 145.259 145.372 142.969 143.617 139.623C143.19 139.606 142.767 139.571 142.348 139.507C144.164 143.536 148.209 146.353 152.908 146.353C157.833 146.353 162.039 143.257 163.713 138.915L162.52 138.959Z" fill="#1C3867"></path>
    <path d="M152.912 142.248C155.425 142.248 157.647 140.999 159.005 139.092L157.549 139.146C156.384 140.379 154.738 141.154 152.912 141.154C151.258 141.154 149.754 140.517 148.62 139.482L147.156 139.537C148.528 141.192 150.599 142.248 152.912 142.248Z" fill="#1C3867"></path>
    <path d="M154.931 120.506L153.252 120.483L153.421 120.795L152.941 121.055L152.625 120.474L150.698 120.448L149.415 120.43L143.547 120.349C138.642 120.534 134.215 123.811 132.268 128.701C132.154 128.986 132.095 129.287 132.061 129.59C132.157 129.438 132.317 129.332 132.51 129.33L133.223 129.323C133.243 129.251 133.256 129.177 133.285 129.106C135.071 124.618 139.115 121.611 143.56 121.444L164.503 121.735L164.734 121.725C165.399 121.701 166.062 121.674 166.716 121.674C167.988 121.674 169.301 121.766 170.558 122.226C170.587 122.179 170.623 122.137 170.65 122.089L171.125 122.363C171.11 122.388 171.091 122.411 171.076 122.436C171.484 122.624 171.885 122.849 172.273 123.139C173.414 123.989 174.422 125.025 175.266 126.216C175.866 127.062 176.202 127.984 176.333 128.917L176.797 128.913C177.069 128.945 177.346 129.153 177.349 129.454C177.353 129.756 177.11 130.004 176.808 130.007L176.393 130.01C176.346 131.818 175.592 133.58 174.487 134.832C172.987 136.532 170.889 137.553 168.73 137.633L144.505 138.543C139.854 138.709 135.529 135.839 133.484 131.309L133.326 130.96C133.248 130.786 133.198 130.604 133.165 130.418L132.52 130.424C132.518 130.424 132.517 130.424 132.515 130.424C132.301 130.424 132.122 130.299 132.031 130.122C132.049 130.563 132.145 131.001 132.329 131.409L132.486 131.758C134.389 135.971 138.143 138.87 142.349 139.509C142.768 139.572 143.191 139.607 143.618 139.625C143.78 139.631 143.941 139.644 144.103 139.644C144.25 139.644 144.399 139.642 144.546 139.637L147.153 139.539L148.616 139.485L157.545 139.149L159.001 139.094L162.52 138.962L163.712 138.917L168.77 138.727C171.227 138.635 173.608 137.478 175.306 135.556C177.489 133.082 178.483 128.863 176.158 125.584C175.246 124.299 174.158 123.182 172.925 122.262C170.937 120.782 168.67 120.582 166.715 120.582C166.047 120.582 165.371 120.607 164.69 120.633L164.488 120.642L156.209 120.527L154.931 120.506Z" fill="#1C3867"></path>
    <path d="M132.516 130.422C132.518 130.422 132.519 130.422 132.521 130.422L133.166 130.417L176.394 130.009L176.809 130.006C177.111 130.002 177.354 129.755 177.35 129.453C177.347 129.151 177.07 128.943 176.798 128.912L176.334 128.916L138.602 129.272L138.078 129.918L137.653 129.575L137.892 129.279L133.222 129.323L132.51 129.33C132.318 129.332 132.157 129.439 132.061 129.59C132.006 129.676 131.968 129.773 131.969 129.882C131.97 129.969 131.996 130.048 132.032 130.122C132.123 130.298 132.304 130.422 132.516 130.422Z" fill="#1C3867"></path>
    <path d="M12.0195 70.4743V72.7179C12.0195 73.0198 12.2646 73.2649 12.5665 73.2649H15.1077C15.4096 73.2649 15.6546 73.0198 15.6546 72.7179V68.3312V67.0415V25.1168C15.6546 24.1148 14.8386 23.2998 13.8365 23.2998C12.8345 23.2998 12.0195 24.1148 12.0195 25.1168V69.1889V70.4743ZM13.8365 24.3937C14.2358 24.3937 14.5607 24.7186 14.5607 25.1168V72.1709H13.1135V25.1168C13.1135 24.7186 13.4373 24.3937 13.8365 24.3937Z" fill="#1C3867"></path>
    <path d="M15.6546 86.0294V82.0738C15.6546 81.7719 15.4096 81.5269 15.1077 81.5269H12.5665C12.2646 81.5269 12.0195 81.7719 12.0195 82.0738V83.7924V85.0941V129.674C12.0195 130.676 12.8345 131.492 13.8365 131.492C14.8386 131.492 15.6546 130.676 15.6546 129.674V87.3356V86.0294ZM13.8365 130.398C13.4383 130.398 13.1135 130.073 13.1135 129.674V82.6208H14.5607V129.674C14.5607 130.073 14.2358 130.398 13.8365 130.398Z" fill="#1C3867"></path>
    <path d="M33.4973 85.5633C33.8091 81.4567 33.7423 77.698 33.5345 74.5924H33.4393V74.0454H33.4951C33.2052 70.1324 32.7086 67.3517 32.5139 66.3649C32.4657 66.1221 32.434 65.9777 32.4307 65.9624L31.8969 66.0838C31.9002 66.0969 31.9275 66.2238 31.9691 66.4316C32.4712 68.9422 35.3253 85.0186 29.8994 100.847C29.8677 100.937 29.8403 101.029 29.8086 101.12L30.326 101.299C30.3413 101.256 30.3534 101.213 30.3687 101.17C32.1496 96.0235 33.0554 90.8492 33.4525 86.106C33.4667 85.9276 33.4842 85.7449 33.4973 85.5633Z" fill="#1C3867"></path>
    <path d="M105.855 44.5341L106.223 42.7849L184.332 44.8328L190.121 38.7746L190.295 38.5919L189.9 38.2134L189.444 38.6904L184.103 44.2792L106.01 42.2314L105.782 42.2248L105.301 44.5035L105.188 45.0461L105.724 45.1587L105.855 44.5341Z" fill="#1C3867"></path>
    <path d="M87.2138 73.3908C87.1416 73.6927 86.8791 74.0462 86.3824 74.0462H33.4933H33.4375V74.5931H33.5327H70.6168L71.0609 74.3874C71.0653 74.3972 71.0981 74.4695 71.1495 74.5931H86.3824C87.0431 74.5931 87.5901 74.161 87.7454 73.5188C87.9008 72.8778 87.6098 72.2444 87.0224 71.9436L73.8329 65.1689L72.7619 64.6187L72.5114 65.1055L72.6197 65.1613L86.7719 72.4315C87.2149 72.6569 87.286 73.09 87.2138 73.3908Z" fill="#1C3867"></path>
    <path d="M73.8901 89.8902C73.8442 81.5064 71.6213 75.7217 71.1498 74.5939C71.0984 74.4714 71.0656 74.398 71.0612 74.3882L70.6171 74.5939L70.5657 74.6169C70.6116 74.7153 73.2906 80.7034 73.3475 89.8432C73.3486 90.0237 73.3464 90.2086 73.3453 90.3913C73.3147 96.3335 72.1595 103.547 68.4949 111.321C68.4544 111.408 68.4194 111.491 68.3789 111.577L68.8701 111.811L68.8723 111.812C68.9248 111.702 68.9707 111.593 69.0221 111.482C72.689 103.676 73.8529 96.4242 73.8879 90.4372C73.8901 90.2556 73.8912 90.0718 73.8901 89.8902Z" fill="#1C3867"></path>
    <path d="M104.832 103.127H106.912H107.642V102.58H107.143H105.71L131.001 51.0031L131.041 50.92L130.55 50.6782L130.397 50.9911L104.832 103.127Z" fill="#1C3867"></path>
    <path d="M100.3 64.8668L100.529 64.728L100.768 64.5825C100.75 64.5529 100.727 64.5267 100.708 64.4971C99.3409 62.318 96.9112 60.9648 94.334 60.9648H82.8663H81.3906V61.5118H82.2111H94.334C96.757 61.5118 99.0422 62.7971 100.3 64.8668Z" fill="#1C3867"></path>
    <path d="M193.825 67.2551H178.542H178.48V67.8021H178.883H193.825C196.406 67.8021 198.725 66.3668 199.901 64.1396C200.015 63.9219 200.104 63.6867 200.197 63.4548C200.244 63.3356 200.305 63.2262 200.347 63.1025L199.827 62.9297C199.801 63.0085 199.761 63.0796 199.731 63.1562C199.637 63.4056 199.539 63.6528 199.417 63.8847C198.335 65.9348 196.201 67.2551 193.825 67.2551Z" fill="#1C3867"></path>
    <path d="M244.766 93.2978C245.598 81.7602 241.021 72.9311 239.832 70.857C239.667 70.5682 239.563 70.4041 239.553 70.3877L239.094 70.6841C239.1 70.694 239.144 70.7651 239.211 70.8756C240.036 72.254 245.109 81.2985 244.218 93.3219C244.205 93.5035 244.185 93.6873 244.168 93.8711C243.743 98.6646 242.366 103.909 239.386 109.321C239.376 109.339 239.367 109.357 239.357 109.375L239.837 109.64C239.904 109.517 239.961 109.395 240.028 109.272C242.947 103.871 244.304 98.6362 244.718 93.8469C244.733 93.6643 244.753 93.4794 244.766 93.2978Z" fill="#1C3867"></path>
    <path d="M171.236 94.4781C172.409 73.9855 169.407 50.7746 169.191 49.1436C169.184 49.0943 169.176 49.0396 169.175 49.0298L168.633 49.1042L168.634 49.1118C168.69 49.5253 171.898 73.4714 170.693 94.4715C170.682 94.6553 170.668 94.8368 170.658 95.0206C170.243 101.791 169.359 108.227 167.752 113.437C167.729 113.51 167.71 113.59 167.688 113.662L168.209 113.826C168.251 113.694 168.286 113.551 168.327 113.417C169.915 108.191 170.792 101.773 171.204 95.0261C171.214 94.8445 171.226 94.6618 171.236 94.4781Z" fill="#1C3867"></path>
    <path d="M152.623 120.475L152.938 121.056L153.418 120.795L153.25 120.483L150.083 114.635H151.45H151.538V114.088H151.127H149.164L152.623 120.475Z" fill="#1C3867"></path>
    <path d="M164.128 125.847H144.525C142.078 125.847 139.79 126.937 138.247 128.838L137.892 129.277L137.652 129.572L138.078 129.916L138.602 129.269L138.673 129.182C140.11 127.41 142.245 126.393 144.525 126.393H164.128C166.973 126.393 169.622 124.876 171.075 122.432C171.09 122.407 171.11 122.384 171.124 122.359L170.65 122.085C170.622 122.134 170.586 122.175 170.558 122.222C169.197 124.459 166.752 125.847 164.128 125.847Z" fill="#1C3867"></path>
    <path d="M64.9789 140.454C63.6279 143.562 60.6054 145.807 56.9998 145.969C53.3439 146.112 50.1464 144.147 48.5405 141.171C48.1084 141.167 47.684 141.128 47.2617 141.074C48.8742 144.629 52.4436 147.071 56.582 147.071C56.7373 147.071 56.8926 147.068 57.0491 147.06C61.2749 146.871 64.7941 144.133 66.1899 140.399L64.9789 140.454Z" fill="#1C3867"></path>
    <path d="M56.5841 143.464C56.6848 143.464 56.7854 143.462 56.886 143.457C59.04 143.359 60.9051 142.236 62.0461 140.585L60.5813 140.652C59.6296 141.646 58.3169 142.298 56.8368 142.365C55.3556 142.422 53.9926 141.891 52.9577 140.993L51.4766 141.06C52.6941 142.53 54.5297 143.464 56.5841 143.464Z" fill="#1C3867"></path>
    <path d="M61.8246 124.185L52.7713 124.126L51.6697 124.119L48.098 124.096C43.7639 124.29 39.8717 127.216 38.1838 131.549C38.0766 131.825 38.0252 132.115 38 132.407C38.0974 132.275 38.2461 132.184 38.4223 132.18L39.1432 132.166C39.1628 132.093 39.176 132.018 39.2033 131.947C40.7348 128.017 44.2452 125.364 48.1199 125.19L66.5285 125.309L66.732 125.301C67.3675 125.272 67.9998 125.243 68.6245 125.243C70.1122 125.243 71.834 125.39 73.3229 126.482C73.5274 126.632 73.7057 126.818 73.9005 126.981L74.0022 126.916L74.2166 127.254C74.8511 127.826 75.4484 128.443 75.957 129.15C76.4668 129.858 76.7447 130.63 76.8716 131.415L77.3715 131.405C77.6811 131.389 77.9228 131.64 77.9294 131.941C77.936 132.243 77.6953 132.492 77.3934 132.499L76.9427 132.507C76.8956 134.054 76.271 135.563 75.3335 136.643C74.7778 137.282 74.1214 137.805 73.4104 138.21L73.5799 138.36L73.2168 138.77L72.8897 138.48C72.0835 138.854 71.2203 139.08 70.3408 139.119L49.0618 140.074C45.0066 140.227 41.2347 137.824 39.3937 133.828L39.2536 133.521C39.2143 133.436 39.1902 133.348 39.1639 133.258L38.4463 133.272C38.443 133.272 38.4387 133.272 38.4354 133.272C38.2636 133.272 38.116 133.187 38.0153 133.061C38.0547 133.376 38.1258 133.687 38.2604 133.977L38.4004 134.283C40.1496 138.083 43.4729 140.581 47.2688 141.072C47.69 141.126 48.1155 141.165 48.5476 141.168C48.5783 141.168 48.6089 141.175 48.6395 141.175C48.797 141.175 48.9546 141.171 49.1121 141.164L51.4859 141.056L52.9671 140.99L60.5907 140.647L62.0554 140.581L64.9872 140.449L66.1981 140.395L70.3912 140.206C72.5659 140.11 74.6684 139.071 76.1594 137.357C78.0793 135.149 78.9314 131.401 76.8475 128.507C76.0358 127.379 75.0688 126.399 73.9727 125.595C72.229 124.316 70.2927 124.144 68.6266 124.144C67.9867 124.144 67.3369 124.173 66.686 124.203L66.511 124.212L62.9503 124.189L61.8246 124.185Z" fill="#1C3867"></path>
    <path d="M38.4299 133.273C38.4332 133.273 38.4376 133.273 38.4409 133.273L39.1585 133.259L48.2567 133.078C48.2337 133.023 48.2031 132.974 48.1823 132.918L48.6953 132.726C48.7402 132.844 48.8004 132.952 48.8551 133.065L76.9394 132.507L77.3901 132.498C77.692 132.492 77.9327 132.244 77.9261 131.94C77.9196 131.64 77.6778 131.389 77.3682 131.404L76.8683 131.414L42.7367 132.093C42.5365 132.291 42.3342 132.484 42.1471 132.695L41.7391 132.332C41.8091 132.253 41.8867 132.184 41.9579 132.108L39.1399 132.164L38.419 132.178C38.2429 132.181 38.0941 132.273 37.9967 132.404C37.9278 132.497 37.8797 132.609 37.883 132.735C37.8863 132.859 37.9366 132.969 38.0099 133.06C38.1105 133.188 38.2582 133.273 38.4299 133.273Z" fill="#1C3867"></path>
    <path d="M67.8847 128.674L50.4398 128.069C50.3578 128.066 50.2747 128.065 50.1915 128.065C47.4326 128.065 44.2603 129.629 41.9532 132.107C41.8821 132.184 41.8033 132.253 41.7344 132.331L42.1424 132.695C42.3295 132.483 42.5329 132.29 42.732 132.092C44.9647 129.879 47.891 128.508 50.4201 128.616L67.865 129.221C70.0485 129.29 72.1827 128.717 74.0271 127.542L74.2863 127.378L74.2076 127.254L73.9932 126.917L73.8914 126.981L73.7339 127.081C71.9825 128.196 69.9741 128.76 67.8847 128.674Z" fill="#1C3867"></path>
    <path d="M68.582 135.625H52.8908C51.1624 135.625 49.5926 134.607 48.8564 133.066C48.8028 132.953 48.7415 132.845 48.6966 132.727L48.1836 132.919C48.2044 132.975 48.2361 133.024 48.258 133.079C49.0358 134.933 50.8681 136.174 52.8897 136.174H68.5809C69.6771 136.174 70.7338 136.574 71.5553 137.302L72.8866 138.482L73.2137 138.772L73.5769 138.361L73.4073 138.211L71.9185 136.892C70.9974 136.075 69.8127 135.625 68.582 135.625Z" fill="#1C3867"></path>
  </g>
</svg>
