<svg xmlns="http://www.w3.org/2000/svg" version="1.1" xmlns:xlink="http://www.w3.org/1999/xlink" width="512" height="512" x="0" y="0" viewBox="0 0 682.667 682.667" style="enable-background:new 0 0 512 512" xml:space="preserve"><g><defs><clipPath id="a" clipPathUnits="userSpaceOnUse"><path d="M0 512h512V0H0Z" fill="#ffffff" opacity="1" data-original="#000000"></path></clipPath></defs><g clip-path="url(#a)" transform="matrix(1.33333 0 0 -1.33333 0 682.667)"><path d="M0 0c-14.42.874-26.388-10.563-26.388-24.794v-.126c.033-6.4 5.395-11.502 11.795-11.502H11.5c6.187 0 12.152 4.787 11.765 12.846C22.665-11.044 12.523-.759 0 0Z" style="stroke-width:15;stroke-linecap:round;stroke-linejoin:round;stroke-miterlimit:10;stroke-dasharray:none;stroke-opacity:1" transform="translate(257.547 377.843)" fill="none" stroke="#ffffff" stroke-width="15" stroke-linecap="round" stroke-linejoin="round" stroke-miterlimit="10" stroke-dasharray="none" stroke-opacity="" data-original="#000000" opacity="1"></path><path d="M0 0v120.47a15.33 15.33 0 0 1-11.454 14.832l-156.172 40.815" style="stroke-width:15;stroke-linecap:round;stroke-linejoin:round;stroke-miterlimit:10;stroke-dasharray:none;stroke-opacity:1" transform="translate(448.457 177.047)" fill="none" stroke="#ffffff" stroke-width="15" stroke-linecap="round" stroke-linejoin="round" stroke-miterlimit="10" stroke-dasharray="none" stroke-opacity="" data-original="#000000" opacity="1"></path><path d="M0 0h-12.156c-6.056 0-11.011-4.955-11.011-11.011v-21.857a3.601 3.601 0 0 1 3.6-3.601H7.411c1.988 0 3.6 1.613 3.6 3.601v21.857C11.011-4.955 6.056 0 0 0Z" style="stroke-width:15;stroke-linecap:round;stroke-linejoin:round;stroke-miterlimit:10;stroke-dasharray:none;stroke-opacity:1" transform="translate(454.535 177.047)" fill="none" stroke="#ffffff" stroke-width="15" stroke-linecap="round" stroke-linejoin="round" stroke-miterlimit="10" stroke-dasharray="none" stroke-opacity="" data-original="#000000" opacity="1"></path><path d="m0 0-103.606-50.513a38.794 38.794 0 0 0-33.997 0L-241.214.002c-8.315-41.822-21.411-80.658-28.809-100.9-3.3-9.027-.458-19.173 7.099-25.113 41.863-32.902 86.052-50.88 113.877-59.846 9.189-2.962 18.785-4.444 28.44-4.444 9.654 0 19.251 1.482 28.44 4.444 27.824 8.966 72.013 26.944 113.877 59.846 7.556 5.94 10.398 16.086 7.099 25.113C21.41-80.656 8.314-41.821 0 0Z" style="stroke-width:15;stroke-linecap:round;stroke-linejoin:round;stroke-miterlimit:10;stroke-dasharray:none;stroke-opacity:1" transform="translate(376.604 274.325)" fill="none" stroke="#ffffff" stroke-width="15" stroke-linecap="round" stroke-linejoin="round" stroke-miterlimit="10" stroke-dasharray="none" stroke-opacity="" data-original="#000000" opacity="1"></path><path d="M0 0h-26.259l-3.123-47.212a6.78 6.78 0 0 1 6.766-7.227h18.973a6.78 6.78 0 0 1 6.765 7.227z" style="stroke-width:15;stroke-linecap:round;stroke-linejoin:round;stroke-miterlimit:10;stroke-dasharray:none;stroke-opacity:1" transform="translate(461.586 140.578)" fill="none" stroke="#ffffff" stroke-width="15" stroke-linecap="round" stroke-linejoin="round" stroke-miterlimit="10" stroke-dasharray="none" stroke-opacity="" data-original="#000000" opacity="1"></path><path d="M0 0a91.736 91.736 0 0 0-10.938 2.786C-56.624 17.51-98.996 41.435-125.182 62.947a746.505 746.505 0 0 0-6.732-19.254c-3.299-9.026-.457-19.172 7.1-25.112 41.863-32.902 86.052-50.88 113.876-59.848 9.189-2.961 18.786-4.441 28.44-4.441 9.655 0 19.252 1.48 28.44 4.441 27.826 8.968 72.014 26.946 113.878 59.848 7.556 5.94 10.398 16.086 7.099 25.112a742.706 742.706 0 0 0-6.732 19.254C134.121 41.522 91.733 17.544 45.942 2.786A91.752 91.752 0 0 0 35 .003" style="stroke-width:15;stroke-linecap:round;stroke-linejoin:round;stroke-miterlimit:10;stroke-dasharray:none;stroke-opacity:1" transform="translate(238.495 129.733)" fill="none" stroke="#ffffff" stroke-width="15" stroke-linecap="round" stroke-linejoin="round" stroke-miterlimit="10" stroke-dasharray="none" stroke-opacity="" data-original="#000000" opacity="1"></path><path d="m0 0-89.897 30.383a38.795 38.795 0 0 1-24.838 0l-231.286-78.166c-5.972-2.019-6.499-10.259-.833-13.021l227.54-110.934a38.785 38.785 0 0 1 33.996 0L142.221-60.804c5.666 2.762 5.139 11.002-.832 13.021L33.313-11.258" style="stroke-width:15;stroke-linecap:round;stroke-linejoin:round;stroke-miterlimit:10;stroke-dasharray:none;stroke-opacity:1" transform="translate(358.316 395.55)" fill="none" stroke="#ffffff" stroke-width="15" stroke-linecap="round" stroke-linejoin="round" stroke-miterlimit="10" stroke-dasharray="none" stroke-opacity="" data-original="#000000" opacity="1"></path></g></g></svg>