<svg xmlns="http://www.w3.org/2000/svg" version="1.1" xmlns:xlink="http://www.w3.org/1999/xlink" width="512" height="512" x="0" y="0" viewBox="0 0 24 24" style="enable-background:new 0 0 512 512" xml:space="preserve" class=""><g><path d="M17.5 13c-.827 0-1.5-.673-1.5-1.5s.673-1.5 1.5-1.5 1.5.673 1.5 1.5-.673 1.5-1.5 1.5zm0-2a.5.5 0 1 0 .002 1.002A.5.5 0 0 0 17.5 11zM21.5 20c-.827 0-1.5-.673-1.5-1.5s.673-1.5 1.5-1.5 1.5.673 1.5 1.5-.673 1.5-1.5 1.5zm0-2c-.275 0-.5.225-.5.5s.225.5.5.5.5-.225.5-.5-.225-.5-.5-.5zM11.5 13c-.827 0-1.5-.673-1.5-1.5s.673-1.5 1.5-1.5 1.5.673 1.5 1.5-.673 1.5-1.5 1.5zm0-2a.5.5 0 1 0 .002 1.002A.5.5 0 0 0 11.5 11z" fill="#ffffff" opacity="1" data-original="#000000"></path><path d="M14.5 18c-1.93 0-3.5-1.57-3.5-3.5v-2a.5.5 0 0 1 1 0v2c0 1.379 1.121 2.5 2.5 2.5s2.5-1.121 2.5-2.5v-2a.5.5 0 0 1 1 0v2c0 1.93-1.57 3.5-3.5 3.5z" fill="#ffffff" opacity="1" data-original="#000000"></path><path d="M9 22c-4.411 0-8-3.589-8-8C1 8.87 8.313.522 8.625.169a.516.516 0 0 1 .75 0c.146.166 3.594 4.091 5.815 8.214a.5.5 0 1 1-.88.474C12.563 5.615 9.962 2.412 9 1.269 7.498 3.055 2 9.875 2 14c0 3.859 3.141 7 7 7 .842 0 1.653-.146 2.411-.437a.5.5 0 0 1 .358.934A7.715 7.715 0 0 1 9 22zM18 24c-2.206 0-4-1.794-4-4v-2.5a.5.5 0 0 1 1 0V20c0 1.654 1.346 3 3 3s3-1.346 3-3v-.5a.5.5 0 0 1 1 0v.5c0 2.206-1.794 4-4 4z" fill="#ffffff" opacity="1" data-original="#000000"></path></g></svg>