<svg xmlns="http://www.w3.org/2000/svg" version="1.1" xmlns:xlink="http://www.w3.org/1999/xlink" width="512" height="512" x="0" y="0" viewBox="0 0 511.999 511" style="enable-background:new 0 0 512 512" xml:space="preserve" class=""><g><path d="m488.656 319.172 14.649-14.645c9.218-9.222 9.218-24.226 0-33.449-4.47-4.465-10.407-6.926-16.727-6.926-4.742 0-9.273 1.387-13.125 3.97l-3.086-10.36 15.856-15.86c9.222-9.222 9.222-24.226 0-33.445-8.489-8.492-21.871-9.144-31.141-2l-18.789-63.078a1604.216 1604.216 0 0 0 21.465-21.031c19.52-19.524 35.39-40.184 44.691-58.184 15.715-30.422 9.137-46.684.852-54.969-8.281-8.285-24.543-14.86-54.969.856-17.996 9.297-38.66 25.168-58.18 44.691a1579.784 1579.784 0 0 0-21.03 21.461l-63.083-18.789c7.145-9.266 6.492-22.648-1.996-31.14-9.223-9.22-24.227-9.223-33.445 0l-15.86 15.859-10.363-3.086c2.582-3.856 3.969-8.387 3.969-13.129a23.5 23.5 0 0 0-6.926-16.723c-9.219-9.222-24.227-9.222-33.445 0L193.328 23.84 118.684 1.605a7.547 7.547 0 0 0-7.493 1.899L91.977 22.719c-3.227 3.222-2.801 8.734.878 11.426L281.191 172c-42.464 47.879-83.37 95.816-112.25 130.066l-55.398-21.308a7.548 7.548 0 0 0-8.047 1.707l-22.773 22.773a7.55 7.55 0 0 0 0 10.672l113.863 113.863c2.906 2.91 7.766 2.91 10.676 0l22.77-22.77a7.547 7.547 0 0 0 1.706-8.05l-21.304-55.394c34.25-28.88 82.183-69.786 130.066-112.254l14.96 20.445c2.657 3.629 8.044 4.098 11.302 1.004 2.715-2.578 3.09-6.902.883-9.918l-15.817-21.61c25.04-22.347 49.766-44.894 72.2-66.14l71.113 238.73-9.809 9.805-97.738-133.531a7.547 7.547 0 0 0-10.547-1.633 7.545 7.545 0 0 0-1.633 10.55l102.941 140.638c2.692 3.68 8.204 4.105 11.426.878l19.215-19.214a7.55 7.55 0 0 0 1.899-7.493zM281.273 36.949c3.297-3.297 8.801-3.297 12.098 0 3.336 3.336 3.336 8.762 0 12.098l-3.539 3.539-18.645-5.555zm-62.625-17.078c3.332-3.336 8.762-3.336 12.098 0 3.336 3.336 3.336 8.762 0 12.098l-2.328 2.324-18.64-5.55zm-109.773 7.293 9.809-9.805 238.73 71.11c-21.246 22.437-43.793 47.164-66.144 72.203zm3.828 269.445 45.957 17.676a6818.117 6818.117 0 0 0-25.582 30.633l-34.344-34.344zm31.098 59.032c26.312-31.746 165.394-198.594 257.027-290.227 18.18-18.184 38.024-33.473 54.434-41.95 12.32-6.366 28.804-12.155 37.367-3.593s2.77 25.047-3.594 37.367c-8.476 16.41-23.77 36.25-41.953 54.434-91.625 91.625-258.477 230.71-290.223 257.027zm72.09 44.156-13.965 13.965-34.344-34.344c6.281-5.211 16.906-14.05 30.633-25.578zm264.64-118.043c3.336-3.336 8.762-3.336 12.098 0 3.336 3.336 3.336 8.762 0 12.098l-8.871 8.87-5.555-18.64zm-17.078-62.625c3.332-3.336 8.762-3.332 12.098 0 3.297 3.297 3.297 8.8 0 12.098l-10.086 10.086-5.555-18.645zM453.082 435.203l-64.41 64.41c-2.746 2.75-2.93 7.29-.402 10.242 2.824 3.297 8.007 3.504 11.078.434l64.41-64.41a7.547 7.547 0 0 0 0-10.676c-2.946-2.945-7.727-2.945-10.676 0zm0 0" fill="#ffffff" opacity="1" data-original="#000000" class=""></path><path d="M431.55 413.672a7.542 7.542 0 0 0 0-10.672 7.542 7.542 0 0 0-10.671 0l-40.258 40.254c-2.746 2.75-2.93 7.289-.402 10.242 2.824 3.297 8.008 3.504 11.078.434zM407.398 373.418a7.547 7.547 0 0 0 0-10.676 7.547 7.547 0 0 0-10.675 0l-28.18 28.18c-2.746 2.746-2.93 7.289-.398 10.242 2.82 3.297 8.003 3.504 11.074.434zM77.297 52.766c-2.95-2.946-7.73-2.946-10.676 0L2.211 117.18a7.542 7.542 0 0 0 0 10.672c2.906 2.906 7.766 2.906 10.676 0l64.41-64.41a7.554 7.554 0 0 0 0-10.676zM109.5 84.973a7.542 7.542 0 0 0-10.672 0L58.57 125.23c-2.75 2.747-2.93 7.286-.402 10.239 2.824 3.297 8.004 3.504 11.074.433L109.5 95.648a7.547 7.547 0 0 0 0-10.675zM110.902 147.98c2.91 2.907 7.766 2.907 10.676 0l28.18-28.18a7.554 7.554 0 0 0 0-10.675 7.554 7.554 0 0 0-10.676 0l-28.18 28.18a7.554 7.554 0 0 0 0 10.675zm0 0" fill="#ffffff" opacity="1" data-original="#000000" class=""></path></g></svg>