<svg xmlns="http://www.w3.org/2000/svg" version="1.1" xmlns:xlink="http://www.w3.org/1999/xlink" width="512" height="512" x="0" y="0" viewBox="0 0 128 128" style="enable-background:new 0 0 512 512" xml:space="preserve" class=""><g><path d="M76.019 0h45.944C125.422 0 128 3.089 128 6.462v28.939c0 3.373-2.578 6.462-6.037 6.462H76.019c-3.486 0-6.038-3.089-6.038-6.462v-5.243l-9.778-4.989c-3.005-1.531-3.005-6.037 0-7.568 3.26-1.672 6.519-3.316 9.778-4.989v-6.15C69.98 3.089 72.532 0 76.019 0zm45.944 3.996H76.019c-1.275 0-2.041 1.304-2.041 2.466v7.37c0 .708-.396 1.417-1.105 1.757-3.629 1.871-7.228 3.742-10.856 5.584-.198.113-.142.368 0 .425l10.687 5.499a1.977 1.977 0 0 1 1.275 1.842v6.462c0 1.162.766 2.466 2.041 2.466h45.944c1.275 0 2.041-1.304 2.041-2.466V6.462c-.001-1.162-.767-2.466-2.042-2.466z" fill="#ffffff" opacity="1" data-original="#000000" class=""></path><path d="M84.437 14.086c-2.637 0-2.637-3.996 0-3.996h29.987c2.608 0 2.608 3.996 0 3.996zm0 17.715c-2.637 0-2.637-3.997 0-3.997h17.8c2.636 0 2.636 3.997 0 3.997zm0-8.871c-2.637 0-2.637-3.997 0-3.997h29.987c2.608 0 2.608 3.997 0 3.997zM25.736 37.838a10.404 10.404 0 0 1-1.587-.765l-.313 2.296 6.576 7.397 6.547-7.397-.312-2.296c-.481.283-.992.539-1.559.765-2.635 1.049-6.744 1.049-9.352 0zm-5.215-3.684-.198-.17c-3.062-2.721-4.563-6.462-4.563-10.544v-9.184C15.76 5.583 21.882 0 30.413 0s14.625 5.583 14.625 14.256v9.184c0 4.082-1.502 7.823-4.563 10.544l-.199.17.652 4.818 3.43 3.004L54.08 46.2c2.098.936 3.77 2.381 4.932 4.195 1.162 1.842 1.786 3.996 1.786 6.292v5.527c0 1.105-.879 2.013-1.984 2.013s-2.013-.907-2.013-2.013v-5.527c0-1.559-.396-2.976-1.162-4.138a7.13 7.13 0 0 0-3.146-2.692l-7.964-3.458-3.345 10.459c-.312 1.049-1.445 1.616-2.494 1.304-.198-.085-.397-.17-.567-.312l-5.726-4.167v8.531c0 1.105-.878 2.013-1.983 2.013s-2.014-.908-2.014-2.013v-8.531l-5.697 4.195-.595.283a2.008 2.008 0 0 1-2.494-1.304l-3.316-10.459-7.993 3.458c-1.332.595-2.409 1.53-3.146 2.692s-1.162 2.58-1.162 4.138v25.083c0 1.106-.879 2.013-1.984 2.013S0 82.877 0 81.771V56.687c0-2.296.624-4.45 1.814-6.292 1.134-1.814 2.806-3.26 4.903-4.195l9.722-4.223 3.43-3.004zm3.316-2.381c.113.085.199.17.284.283.935.822 1.898 1.616 3.061 2.069 1.673.652 4.791.652 6.435 0 1.162-.454 2.126-1.247 3.061-2.069.086-.113.199-.198.312-.283.284-.255.567-.51.822-.766 2.211-1.984 3.231-4.62 3.231-7.567v-4.251c-7.341 1.388-11.508-1.956-13.634-4.733-2.381 2.806-5.413 2.947-7.624 2.522v6.462c0 2.947.992 5.583 3.203 7.567l.849.766zM21.57 42.798l-1.758 1.531 2.749 8.673 4.903-3.571zm17.658 0-5.867 6.633 4.875 3.571 2.75-8.673zM11.734 68.394c0-1.105.907-2.013 2.013-2.013s1.984.907 1.984 2.013v13.377c0 1.106-.879 2.013-1.984 2.013s-2.013-.906-2.013-2.013zm8.107-55.498c1.56.397 4.28.51 5.754-3.118.709-1.701 3.061-1.757 3.741.142 0 0 2.522 7.284 11.706 5.187v-.851c0-6.462-4.308-10.26-10.629-10.26-5.697 0-9.976 3.089-10.572 8.9zM83.133 87.101c-3.657-3.232-5.442-7.115-5.442-12.019V64.709c0-9.609 6.774-15.816 16.27-15.816 9.467 0 16.24 6.208 16.24 15.816v10.373c0 4.903-1.758 8.786-5.413 12.019l.794 8.247 14.993 5.641c4.648 2.041 7.426 6.548 7.426 11.593v13.406c0 1.105-.906 2.013-2.012 2.013s-1.984-.907-1.984-2.013v-13.406c0-3.458-1.785-6.491-4.989-7.908l-15.985-6.037c-5.979-1.898-12.018-2.296-18.083-.51l-16.071 6.547c-3.174 1.417-4.96 4.45-4.96 7.908v13.406a2.021 2.021 0 0 1-2.013 2.013c-1.104 0-1.983-.907-1.983-2.013v-13.406c0-5.045 2.777-9.552 7.426-11.593l15.051-6.122zm16.921 1.983H87.838c-.51 0-.936.397-.992.906l-.34 3.629c4.987-.992 10.005-.766 14.937.425l-.397-4.054c-.029-.509-.454-.906-.992-.906zm-12.386-3.939h12.556c.736 0 1.644-.681 2.438-1.446 2.409-2.381 3.543-5.158 3.543-8.616V64.709c0-7.427-4.96-11.82-12.244-11.82s-12.273 4.394-12.273 11.82v10.373c0 3.657 1.332 6.632 4.054 9.042.651.595 1.33 1.021 1.926 1.021z" fill="#ffffff" opacity="1" data-original="#000000" class=""></path><path d="m20.578 86.675 3.315-18.99c.511-2.919 3.288-5.301 6.236-5.301h33.7c3.287 0 5.527 2.807 4.961 5.981l-4.252 24.233c-.539 3.118-3.486 5.669-6.661 5.669H14.541c-2.212 0-4.422-1.247-4.989-3.515l-1.36-5.584c-.312-1.275.652-2.494 1.928-2.494h10.458zm25.452-8.418c1.105 0 1.984.879 1.984 1.983 0 1.105-.879 2.013-1.984 2.013s-2.013-.907-2.013-2.013c.001-1.104.908-1.983 2.013-1.983zM23.582 92.599c-.142.964.34 1.672 1.332 1.672h32.964c1.275 0 2.494-1.105 2.722-2.353l4.251-24.233c.142-.766-.255-1.304-1.021-1.304h-33.7c-1.049 0-2.098.936-2.296 1.984l-4.252 24.234zm-3.713-1.928H12.67l.765 3.118c.341.595.822.481 1.106.481h5.158c-.17-.765-.17-1.587-.057-2.353z" fill="#ffffff" opacity="1" data-original="#000000" class=""></path></g></svg>