<svg xmlns="http://www.w3.org/2000/svg" version="1.1" xmlns:xlink="http://www.w3.org/1999/xlink" width="512" height="512" x="0" y="0" viewBox="0 0 64 64" style="enable-background:new 0 0 512 512" xml:space="preserve" class=""><g><path d="M18.65 21.859h24.598a1 1 0 0 0 1-1V7.89a1 1 0 0 0-1-1H18.65a1 1 0 0 0-1 1v12.97a1 1 0 0 0 1 1zm1-12.97h22.598v10.97H19.65z" fill="#ffffff" opacity="1" data-original="#000000"></path><path d="M51.971 45.632c2.51-1.476 4.203-4.198 4.203-7.314 0-4.34-3.276-7.924-7.483-8.423V6.99c0-2.752-2.243-4.99-5-4.99H9.65a4.995 4.995 0 0 0-4.99 4.99v44.823c.012 3.196 2.613 5.797 5.8 5.797h25.567V61a1 1 0 0 0 1 1h21.316a1 1 0 0 0 1-1v-4.536c0-4.915-3.061-9.12-7.373-10.832zm2.203-7.314c0 3.577-2.91 6.487-6.488 6.487s-6.488-2.91-6.488-6.487 2.91-6.488 6.488-6.488 6.488 2.91 6.488 6.488zM46.691 6.99v22.903c-4.213.495-7.493 4.081-7.493 8.425 0 3.116 1.693 5.838 4.203 7.314-.28.111-.553.236-.822.368H15.188V4h28.503c1.654 0 3 1.342 3 2.99zM9.65 4h3.537v42h-2.728c-1.415 0-2.74.529-3.8 1.459V6.99A2.994 2.994 0 0 1 9.649 4zM6.66 51.8c0-1.01.396-1.962 1.117-2.683S9.45 48 10.46 48h29.232a11.62 11.62 0 0 0-3.622 7.61H10.46c-2.088 0-3.792-1.707-3.8-3.811zM57.344 60H38.028v-3.375c0-.005.003-.009.003-.015s-.003-.009-.003-.015v-.132c0-5.325 4.333-9.658 9.658-9.658s9.658 4.333 9.658 9.658v3.536z" fill="#ffffff" opacity="1" data-original="#000000"></path><path d="M41.919 25.354H19.951a1 1 0 1 0 0 2h21.968a1 1 0 1 0 0-2zM36.549 29.83H25.322a1 1 0 1 0 0 2h11.227a1 1 0 1 0 0-2z" fill="#ffffff" opacity="1" data-original="#000000"></path></g></svg>